<?xml version="1.0"?>
<svg width="800" height="320" xmlns="http://www.w3.org/2000/svg" xmlns:svg="http://www.w3.org/2000/svg" preserveAspectRatio="xMidYMid meet" version="1.0">
 <g class="layer">
  <title>Layer 1</title>
  <!-- Cross (✗) in green -->
  <!-- Underline in green -->
  <!-- All other elements in blue -->
  <g id="svg_13" transform="translate(-75 254) matrix(1 0 0 1 20 -51)"/>
  <g id="svg_20" transform="translate(1 0) translate(1 0) translate(1 0) translate(1 0) translate(0 1) translate(0 -1) translate(0 -1) translate(0 -1) translate(0 -1) translate(0 -1) translate(0 -1) translate(0 -1) translate(0 -1) translate(0 -1) translate(0 -1) translate(0 -1) translate(0 -1) translate(0 -1) translate(0 -1) translate(0 -1) translate(0 -1) translate(0 -1) translate(0 -1) translate(0 -1) translate(0 -1) translate(0 -1) translate(0 -1) translate(0 -1) translate(0 -1) translate(0 -1) translate(0 -1) translate(-125 -299)">
   <path d="m250.9,406.3c-5.6,3.7 -5.9,5.2 -5.9,27.4l0,20.3l-19.5,0c-30.5,0 -30.5,0 -30.5,26.5c0,26.8 -0.4,26.5 30,26.5l20,0l0,20c0,29.8 -0.7,29 26.7,29l19.3,0l3.2,-2.9l3.3,-2.9l0.3,-21.6l0.3,-21.6l20.1,0c30,0 29.8,0.2 29.8,-26c0,-26.7 0.2,-26.5 -29.2,-26.5l-20.8,0l0,-20.3c0,-30.3 0.1,-30.2 -26.8,-30.2c-15.9,0 -17.1,0.1 -20.3,2.3z" fill="#2F9650" id="svg_2"/>
   <path d="m272.8,343.5c-44.1,8.3 -88,39.7 -117.9,84.3c-17.1,25.5 -25.4,50.1 -26.6,78.7c-1.4,34.2 10.4,63.6 33.2,82.8c18.6,15.7 38.9,22.7 65.5,22.7c39.8,0 75.9,-16.1 105.5,-47.1c16,-16.8 28.5,-36.1 35,-54.1c3.6,-10 5.3,-18.8 3.8,-18.8c-0.5,0 -2.9,3.2 -5.4,7.1c-15.2,24.3 -22.1,33.2 -34,44.3c-20,18.5 -43.1,30.9 -67.9,36.2c-12.4,2.7 -35.6,2.5 -46.5,-0.4c-10.5,-2.8 -24.6,-9.9 -31.6,-15.9c-18.8,-16.3 -27.9,-37.1 -27.9,-64.4c0,-17.8 4.1,-35 12.5,-52.4c13.5,-28.1 43.2,-56.8 71.7,-69.3c16.1,-7.1 26.1,-9.3 43.7,-9.9c22.8,-0.8 36.3,2.2 50.3,11.3c18.7,12 28.6,38.3 27.6,73.2c-0.3,12.4 0.3,12.8 4.2,2.4c5.6,-14.8 6.5,-41 2.1,-58.2c-6.8,-26.1 -23.5,-43.6 -49.1,-51.1c-9.8,-2.8 -36.4,-3.6 -48.2,-1.4z" fill="#126A9C" id="svg_4"/>
   <g id="svg_11" transform="translate(0 -1) matrix(1 0 0 1 -1 -10)">
    <path d="m413,479l0,58.2l23.8,-0.5c18.7,-0.3 24.8,-0.8 29.2,-2.2c16.6,-5.2 25.4,-13.8 30.7,-30c2.1,-6.6 2.7,-10.5 3,-22c0.9,-23.8 -2.8,-36.8 -13.4,-47.4c-11.2,-11.1 -18.6,-13.1 -50,-13.8l-23.3,-0.5l0,58.2zm47.2,-33.8c9.7,4.5 14.4,13.4 15.5,29.4c1,14.6 -2.8,28.7 -9.4,34.4c-5.2,4.6 -9.9,6.2 -20,6.7l-9.3,0.6l0,-37.3l0,-37.2l8.8,0.4c6.6,0.3 10,1 14.4,3z" fill="#126A9C" id="svg_5"/>
    <path d="m607,479l0,58l11.5,0l11.5,0l0.2,-36.6l0.3,-36.5l19.9,36.5l19.9,36.6l13.3,0l13.4,0l0,-58l0,-58l-11.5,0l-11.5,0l-0.2,37.7l-0.3,37.8l-8,-15.1c-4.4,-8.3 -13.4,-25.3 -20,-37.7l-12,-22.6l-13.2,-0.1l-13.3,0l0,58z" fill="#126A9C" id="svg_6"/>
    <path d="m552.7,449c-3.9,1.2 -9.3,5.5 -12.7,10.2l-2.9,3.9l-0.6,-6.8l-0.7,-6.8l-10.9,0l-10.9,0l0,43.7l0,43.8l11.5,0l11.5,0l0,-22.8l0,-22.7l2.9,-6.1c4.1,-8.7 8.6,-11.9 16.2,-11.8l5.8,0.1l2.5,-11.1c1.5,-6.1 2.6,-11.6 2.6,-12.2c0,-2.2 -8.9,-3 -14.3,-1.4z" fill="#126A9C" id="svg_7"/>
    <path d="m738.5,449.3c-14,4.7 -23.5,15.3 -26.6,29.6c-1.8,8.6 -0.7,28.5 2,35.4c3.5,8.9 9.5,15.6 17.6,19.7c6.7,3.4 7,3.5 18.9,3.5c11.2,0 12.5,-0.2 18.4,-2.9c14.2,-6.6 22.2,-21.6 22.2,-41.5c-0.1,-14.3 -5.3,-28.6 -13.3,-35.7c-7,-6.4 -13.7,-8.8 -25.2,-9.1c-6.3,-0.2 -11.5,0.2 -14,1zm20.3,20.7c5.8,3.5 7.7,9.5 7.7,23.5c0,10.9 -0.2,12.4 -2.5,16.4c-3.6,6.3 -6.8,8.4 -13.2,8.4c-6.1,0.1 -9.7,-1.8 -12.7,-6.7c-4.4,-7.2 -5.2,-24.2 -1.6,-33.4c1,-2.3 3.3,-5.5 5.1,-7.2c2.9,-2.5 4.3,-3 8.7,-3c3.5,0 6.3,0.7 8.5,2z" fill="#126A9C" id="svg_8"/>
    <path d="m794,450.1c0,0.6 4.3,18.1 9.6,38.8c5.3,20.7 10.2,39.8 10.8,42.6l1.1,5l12.1,0.3l12.1,0.3l2.6,-9.3c1.4,-5.1 4.7,-17.3 7.3,-27.2c2.7,-9.8 5,-17.3 5.2,-16.6c0.3,0.8 3.5,12.9 7.2,26.9l6.7,25.6l11.6,0.3l11.5,0.3l1.5,-5.3c4,-13.9 21.1,-77.6 21.5,-80.1l0.4,-2.7l-11.5,0l-11.4,0l-2.1,8.7c-1.1,4.9 -4,17.7 -6.4,28.5c-2.3,10.9 -4.6,19.8 -5,19.8c-0.5,0 -0.8,-0.8 -0.8,-1.8c0,-0.9 -2.9,-13.6 -6.3,-28.2l-6.3,-26.5l-10.6,-0.2c-7.3,-0.1 -10.8,0.2 -11.1,1c-0.2,0.7 -3.5,13.8 -7.2,29.2c-3.8,15.4 -7,27.5 -7.1,27c-0.2,-0.6 -2.8,-12.9 -5.9,-27.5c-3.1,-14.6 -5.8,-27.3 -6.1,-28.3c-0.5,-1.5 -1.9,-1.7 -12,-1.7c-7.7,0 -11.4,0.4 -11.4,1.1z" fill="#126A9C" id="svg_9"/>
    <path d="m568.1,509.8c-5,2.5 -7.4,6.3 -7.4,12.4c-0.7,9.7 4.9,15.8 14.5,15.8c9,0 14.2,-5.5 14.2,-15c0,-3.8 -0.6,-6.5 -2,-8.8c-3.6,-5.8 -12.2,-7.9 -18.9,-4.4l-0.4,0z" fill="#126A9C" id="svg_10"/>
   </g>
   <text fill="#2F9650" font-family="Monospace" font-size="55.64" font-weight="bold" id="svg_12" letter-spacing="0" stroke-width="0" text-anchor="middle" textLength="0" word-spacing="0" x="661.87" xml:space="preserve" y="603.5">Dashboard Panel</text>
  </g>
 </g>

</svg>