<?xml version="1.0"?>
<svg width="66" height="65" xmlns="http://www.w3.org/2000/svg" xmlns:svg="http://www.w3.org/2000/svg" xmlns:xlink="http://www.w3.org/1999/xlink">
 <g class="layer">
  <title>Layer 1</title>
  <rect fill="#F6F8FF" height="65" id="svg_1" rx="10" width="66"/>
  <path d="m43.2,20.64l-22.02,0c-0.78,0 -1.29,-0.51 -1.29,-1.29c0,-0.78 0.51,-1.3 1.29,-1.3l22.02,0c0.77,0 1.29,0.52 1.29,1.3c0,0.78 -0.52,1.29 -1.29,1.29z" fill="#F2D4B7" id="svg_2"/>
  <path d="m50.63,50.45l-3.6,-3.58c0.9,-1.27 1.28,-2.68 1.28,-4.21c0,-4.21 -3.47,-7.66 -7.59,-7.66c-4.12,0 -7.72,3.45 -7.72,7.66c0,4.21 3.47,7.66 7.59,7.66c1.55,0 3.09,-0.51 4.25,-1.28l3.6,3.58c0.52,0.51 1.55,0.51 2.06,0c0.64,-0.64 0.64,-1.66 0.13,-2.17z" fill="#F2D4B7" id="svg_3"/>
  <path d="m30.5,42.29c0,-5.66 4.75,-10.29 10.41,-10.29c1.45,0 2.77,0.26 4.09,0.77l0,-9.77c0,-0.77 -0.53,-1.29 -1.32,-1.29l-19.77,0l-2.64,0c-1.45,0 -2.63,-1.15 -2.63,-2.57c0,-1.41 1.18,-2.57 2.63,-2.57l22.41,0c0.79,0 1.32,-0.51 1.32,-1.28c0,-0.78 -0.53,-1.29 -1.32,-1.29l-22.41,0c-2.9,0 -5.27,2.31 -5.27,5.14l0,25.72c0,2.83 2.37,5.14 5.27,5.14l2.64,0l10.28,0c-2.24,-1.93 -3.69,-4.63 -3.69,-7.71z" fill="#126a9c" id="svg_4"/>
  <use id="svg_8" transform="scale(0.424504 0.424504)" xlink:href="#svg_7"/>
 </g>
 <defs>
  <symbol id="svg_7" viewBox="0 0 51.04 49.47" xmlns="http://www.w3.org/2000/svg">
   <defs>
    <style>.cls-1,.cls-2,.cls-3{fill:none;}.cls-2,.cls-3{stroke:#fff;stroke-miterlimit:10;}.cls-2{stroke-linecap:round;stroke-width:5px;}.cls-3{stroke-width:2px;}</style>
   </defs>
   <g data-name="Calque 2" id="svg_5">
    <g data-name="Calque 1" id="svg_6">
     <polyline class="cls-1" points="6.8 0 51.04 0 51.04 49.47 0 49.47 0 0 6.8 0"/>
     <line class="cls-2" x1="31.92" x2="41.34" y1="30.64" y2="40.61"/>
     <path class="cls-3" d="m33.77,20.34a11.49,11.49 0 1 1 -11.48,-11.48a11.46,11.46 0 0 1 11.48,11.48z"/>
    </g>
   </g>
  </symbol>
 </defs>
</svg>