<?xml version="1.0"?>
<svg width="66" height="65" xmlns="http://www.w3.org/2000/svg" xmlns:svg="http://www.w3.org/2000/svg">
 <g class="layer">
  <title>Layer 1</title>
  <rect fill="#F6F8FF" height="65" id="svg_1" rx="10" width="66"/>
  <path d="m26.61,26.15l0.23,-0.02c0.09,-0.01 0.16,-0.04 0.23,-0.09l0,0.01c0.22,0.75 0.48,1.54 0.82,2.36c0.42,1.09 0.84,1.97 1.31,2.83l-0.06,-0.13c-0.04,0.59 -0.09,1.2 -0.15,1.79c-0.03,0.36 -0.1,0.7 -0.21,1.02l0.01,-0.03c-0.02,0.01 -0.05,3.38 -0.05,3.38c0.01,2.2 1.53,4.04 3.58,4.53l0.03,0.01c0.09,-0.24 0.31,-0.4 0.58,-0.4l0.93,0c0.26,0 0.49,0.16 0.58,0.39l0,0.01c2.09,-0.5 3.61,-2.34 3.62,-4.54c0,0 -0.05,-3.36 -0.08,-3.38c-0.09,-0.28 -0.16,-0.62 -0.2,-0.96l0,-0.03c-0.06,-0.59 -0.1,-1.18 -0.15,-1.78c0.4,-0.73 0.82,-1.62 1.19,-2.53l0.06,-0.17c0.34,-0.83 0.6,-1.62 0.82,-2.37c0.06,0.04 0.14,0.08 0.23,0.09l0,0l0.23,0.01c0.27,0.03 0.52,-0.19 0.54,-0.55l0.25,-3.13c0,-0.01 0,-0.01 0,-0.01c0,-0.26 -0.2,-0.48 -0.46,-0.51l0,0l-0.03,0c0.07,-0.46 0.1,-0.99 0.1,-1.52c0,-1.17 -0.17,-2.29 -0.49,-3.36l0.02,0.09c-0.94,-2.06 -2.8,-3.55 -5.03,-3.97l-0.05,-0.01c-0.48,-0.1 -1.04,-0.16 -1.61,-0.18l-0.02,0l-0.01,0c-0.59,0.01 -1.15,0.08 -1.69,0.19l0.06,-0.01c-2.28,0.43 -4.14,1.92 -5.06,3.93l-0.02,0.05c-0.3,0.97 -0.48,2.09 -0.48,3.25c0,0.54 0.04,1.08 0.11,1.6l0,-0.06c-0.26,0.03 -0.46,0.24 -0.46,0.51l0,0.01l0.25,3.14c0.02,0.36 0.26,0.57 0.53,0.54l0,0z" fill="#F7DECE" id="svg_2"/>
  <path d="m50.8,46.92c-0.11,-4.94 -0.6,-6.06 -0.87,-6.82c-0.11,-0.3 -0.19,-2.36 -3.59,-3.69c-2.08,-0.82 -4.76,-0.83 -7.03,-1.79l0,2.67c-0.01,2.87 -2.06,5.26 -4.79,5.78l-0.03,0.01c-0.05,0.29 -0.31,0.52 -0.61,0.52l-0.03,0l0,2.01c0,1.97 1.6,3.57 3.56,3.57c1.97,0 3.57,-1.6 3.57,-3.57l0,-1.4c-0.99,-0.15 -1.74,-0.99 -1.74,-2.01c0,-1.12 0.91,-2.03 2.03,-2.03c1.12,0 2.03,0.91 2.03,2.03c0,0.89 -0.57,1.64 -1.36,1.92l-0.02,0l0,1.49l0,0.08c0,2.49 -2.02,4.51 -4.51,4.51c-2.49,0 -4.5,-2.02 -4.5,-4.51c0,-0.03 0,-0.05 0,-0.08l0,0l0,-2.03c-0.29,-0.02 -0.53,-0.24 -0.57,-0.52l0,0c-2.75,-0.54 -4.8,-2.92 -4.8,-5.78l0,-2.69c-2.29,0.98 -4.99,1 -7.08,1.82c-3.4,1.33 -3.48,3.38 -3.58,3.69c-0.26,0.76 -0.76,1.87 -0.88,6.81c-0.02,0.65 0,1.65 1.96,2.52c4.27,1.67 9.77,2.19 15.19,2.57l0.52,0c5.43,-0.37 10.92,-0.89 15.18,-2.57c1.95,-0.87 1.97,-1.86 1.95,-2.51zm-23.85,-2.02l-2.03,0l0,2.04l-1.45,0l0,-2.03l-2.02,0l0,-1.45l2.02,0l0,-2.02l1.45,0l0,2.02l2.03,0l0,1.44z" fill="#126a9c" id="svg_3"/>
  <path d="m42.37,42.18c0,-0.6 -0.49,-1.09 -1.1,-1.09c-0.6,0 -1.09,0.49 -1.09,1.09c0,0.61 0.49,1.1 1.09,1.1c0.61,0 1.1,-0.49 1.1,-1.1z" fill="black" id="svg_4"/>
 </g>
</svg>