<?xml version="1.0"?>
<svg width="66" height="65" xmlns="http://www.w3.org/2000/svg" xmlns:svg="http://www.w3.org/2000/svg">
 <g class="layer">
  <title>Layer 1</title>
  <rect fill="#F6F8FF" height="65" id="svg_1" rx="10" width="66"/>
  <path d="m41.56,23.91c2.07,-0.46 4.76,-2.51 5.17,-3.52c0.24,-0.59 -0.96,-1.51 -1.28,-1.89c-0.73,-0.85 -0.44,-1.26 -0.15,-2.28c0.32,-1.15 -0.45,-2.42 -1.53,-2.91c-1.09,-0.5 -2.39,-0.35 -3.48,0.14c-1.09,0.49 -2.02,1.27 -2.94,2.04c-0.66,-0.43 -1.73,-2.29 -3.45,-1.08c-1.19,0.84 -1.3,2.65 -1.15,4.1c0.36,3.34 1.19,5.08 2.74,5.55c1.96,0.59 4.14,0.28 6.07,-0.15z" fill="#126a9c" id="svg_2"/>
  <path d="m44.92,14.29c-0.26,4.5 -4.66,7.49 -6.75,8.81l1.36,1.16c0,0 0.86,0.02 2.03,-0.35c2.02,-0.64 4.96,-2.45 5.16,-3.52c0.3,-1.55 -1.29,-1.22 -1.65,-2.44c-0.19,-0.65 0.91,-1.88 -0.15,-3.66zm-7.56,1.2c0,0 -0.79,-0.8 -1.37,-1.17c-0.29,0.55 -0.49,1.14 -0.6,1.75c-0.18,1.07 0,2.59 0.43,3.72c0.07,0.17 0.32,0.14 0.35,-0.04c0.37,-2.43 1.19,-4.26 1.19,-4.26z" fill="#126a9c" id="svg_3"/>
  <path d="m31.87,23.51c0,0 -9.59,1.04 -13.92,9.37c-4.33,8.33 -0.65,13.38 3.25,15.22c3.89,1.84 13.7,2.48 20.09,0.97c6.38,-1.51 7.97,-4.65 7.68,-7.68c-0.44,-4.42 -4.55,-7.14 -4.55,-7.14c0,0 0.17,-5.47 -4.07,-9.01c-3.76,-3.15 -8.48,-1.73 -8.48,-1.73z" fill="#126a9c" id="svg_4"/>
  <path d="m35.81,37.53c-2.06,-2.6 -4.49,-2.95 -5.27,-3.88c-0.42,-0.51 -0.67,-1.02 -0.58,-1.66c0.11,-0.67 0.89,-1.14 1.5,-1.26c0.71,-0.13 2.4,-0.06 3.83,1.3c0.34,0.32 0.21,0.81 0.2,1.26c-0.02,0.96 1.35,1.89 2.46,1.09c1.11,-0.81 0.25,-2.59 -0.46,-3.46c-0.54,-0.66 -2.51,-2.1 -4.95,-2.33c-0.68,-0.06 -3.44,-0.47 -5.03,2.56c-0.46,0.87 -0.63,2.97 1.77,4.75c0.5,0.37 3.1,1.7 3.82,2.55c1.26,1.49 0.4,2.8 -0.58,2.97c-2.67,0.47 -4.18,-0.98 -4.46,-1.77c-0.2,-0.56 0.01,-1.17 -0.25,-1.7c-0.26,-0.54 -0.8,-0.76 -1.37,-0.57c-1.88,0.59 -1.28,2.64 -0.45,3.77c0.89,1.21 1.98,1.94 3.2,2.34c4.59,1.49 6.79,-0.86 7.17,-2.59c0.29,-1.26 0.25,-2.36 -0.55,-3.37z" fill="white" id="svg_5"/>
  <path d="m34.7,26.84c-3.9,8.32 -4.57,18.83 -4.57,18.83" id="svg_6" stroke="white" stroke-miterlimit="10" stroke-width="2.25"/>
  <path d="m37.94,21.6c2.59,0.85 3.17,3.19 2.98,3.83c-0.22,0.75 -3.1,-2.17 -7.38,-1.99c-1.49,0.06 -1.06,-0.86 -0.37,-1.39c0.92,-0.7 2.45,-1.2 4.77,-0.45z" fill="#6D4C41" id="svg_7"/>
  <path d="m37.94,21.6c2.59,0.85 3.17,3.19 2.98,3.83c-0.22,0.75 -3.1,-2.17 -7.38,-1.99c-1.49,0.06 -1.06,-0.86 -0.37,-1.39c0.92,-0.7 2.45,-1.2 4.77,-0.45z" fill="#F7DECE" id="svg_8"/>
  <path d="m42.5,29.88c0.32,-0.23 1.42,0.16 1.72,2.3c0.16,1.05 0.2,2.07 0.2,2.07c0,0 -1.29,-1.16 -1.72,-1.98c-0.54,-1.03 -0.75,-2.02 -0.2,-2.39z" fill="#1064E2" id="svg_9"/>
 </g>

</svg>