<?xml version="1.0"?>
<svg width="22" height="22" xmlns="http://www.w3.org/2000/svg" xmlns:svg="http://www.w3.org/2000/svg">
 <g class="layer">
  <title>Layer 1</title>
  <path d="m10.66,16.56l5.5,-3.18l-5.5,-3.17l0,1.95l-4.82,0l0,2.44l4.82,0l0,1.96z" fill="#126a9c" id="svg_1"/>
  <path d="m6.11,4.89c-0.67,0 -1.22,0.55 -1.22,1.22c0,0.68 0.55,1.22 1.22,1.22l9.78,0c0.68,0 1.22,-0.54 1.22,-1.22c0,-0.67 -0.54,-1.22 -1.22,-1.22l-9.78,0z" fill="#126a9c" id="svg_2"/>
  <path clip-rule="evenodd" d="m3.67,0c-2.03,0 -3.67,1.64 -3.67,3.67l0,14.66c0,2.03 1.64,3.67 3.67,3.67l14.66,0c2.03,0 3.67,-1.64 3.67,-3.67l0,-14.66c0,-2.03 -1.64,-3.67 -3.67,-3.67l-14.66,0zm14.66,2.44l-14.66,0c-0.68,0 -1.23,0.55 -1.23,1.23l0,14.66c0,0.68 0.55,1.23 1.23,1.23l14.66,0c0.68,0 1.23,-0.55 1.23,-1.23l0,-14.66c0,-0.68 -0.55,-1.23 -1.23,-1.23z" fill="#126a9c" fill-rule="evenodd" id="svg_3"/>
 </g>
</svg>