<?xml version="1.0"?>
<svg width="66" height="66" xmlns="http://www.w3.org/2000/svg" xmlns:svg="http://www.w3.org/2000/svg">
 <g class="layer">
  <title>Layer 1</title>
  <rect fill="#F6F8FF" height="66" id="svg_1" rx="10" width="66"/>
  <path d="m39.9,41.81l0,-5.43l-14.35,0l0,5.43l7.18,6.21l7.17,-6.21z" fill="#E6AF78" fill-opacity="0.56" id="svg_2"/>
  <path d="m50.99,44.35l-9.86,-2.26c-0.15,-0.03 -0.29,-0.09 -0.41,-0.16l-7.99,4.54l-7.68,-4.76c-0.2,0.18 -0.45,0.32 -0.73,0.38l-9.86,2.26c-1.44,0.33 -2.46,1.58 -2.46,3.02l0,6.08c0,0.86 0.71,1.55 1.59,1.55l38.27,0c0.88,0 1.59,-0.69 1.59,-1.55l0,-6.08c0,-1.44 -1.02,-2.69 -2.46,-3.02z" fill="#126a9c" id="svg_3"/>
  <path d="m25.55,36.38l0,5.73c9.04,3.17 14.35,-4.76 14.35,-4.76l0,-0.97l-14.35,0l0,0z" fill="#D29B6E" fill-opacity="0.34" id="svg_4"/>
  <path d="m22.36,18.54l0.7,14.87c0.06,1.39 0.76,2.68 1.91,3.51l3.29,2.41c0.83,0.6 1.84,0.93 2.87,0.93l3.19,0c1.04,0 2.04,-0.33 2.87,-0.93l3.3,-2.41c1.14,-0.83 1.84,-2.12 1.9,-3.51l0.7,-14.87l-20.73,0z" fill="#F7DECE" id="svg_5"/>
  <path d="m30.34,21.64c3.18,0 7.97,-0.78 9.1,-3.1l-17.08,0l0.7,14.87c0.06,1.39 0.76,2.68 1.91,3.51l3.29,2.41c0.83,0.6 1.84,0.93 2.87,0.93l1.6,0c-1.6,0 -4.79,-3.1 -4.79,-6.98c0,-1.9 0,-6.98 0,-9.31c0,-0.78 0.8,-2.33 2.4,-2.33z" fill="#F2D4B7" id="svg_6"/>
  <path d="m17.86,49.96l-5.17,-4.51c-0.43,0.53 -0.69,1.2 -0.69,1.92l0,6.08c0,0.85 0.72,1.55 1.6,1.55l5.58,0l0,-2.15c0,-1.1 -0.48,-2.15 -1.32,-2.89z" fill="#126a9c" id="svg_7"/>
  <path d="m47.6,49.96l5.17,-4.51c0.43,0.53 0.69,1.2 0.69,1.92l0,6.08c0,0.85 -0.72,1.55 -1.6,1.55l-5.58,0l0,-2.15c0,-1.1 0.48,-2.15 1.32,-2.89z" fill="#126a9c" id="svg_8"/>
  <path d="m25.44,40.09l7.29,6.38c0,0 -2.04,1 -4.56,3.02c-0.52,0.42 -1.31,0.25 -1.59,-0.35l-3.42,-7.33l1.08,-1.58c0.27,-0.39 0.84,-0.46 1.2,-0.14z" fill="#7F9BFF" id="svg_9"/>
  <path d="m40.01,40.09l-7.28,6.38c0,0 2.04,1 4.56,3.02c0.51,0.42 1.3,0.25 1.58,-0.35l3.42,-7.33l-1.08,-1.58c-0.27,-0.39 -0.84,-0.46 -1.2,-0.14z" fill="#7F9BFF" id="svg_10"/>
  <path d="m37.56,13.4l0.75,5.14c3.41,0.66 3.9,5.87 3.97,7.36c0.01,0.27 0.1,0.53 0.25,0.76l1.3,1.96c0,0 -0.44,-3.25 1.6,-5.43c0,0 0.7,-12.9 -7.87,-9.79z" fill="#404040" id="svg_11"/>
  <path d="m23.13,12.01l1.18,0.78c-5.33,3.83 -4.34,10.4 -4.34,10.4c1.6,1.55 1.6,5.43 1.6,5.43l1.59,-1.55c0,0 -0.61,-4.48 2.39,-6.21c2.79,-1.6 5.23,-0.77 7.72,-0.77c6.68,0 8.55,-2.45 8.23,-5.43c-0.17,-1.55 -2.6,-4.76 -8.77,-4.66c-2.5,0.04 -7.18,0.78 -9.6,2.01z" fill="#242424" id="svg_12"/>
 </g>
</svg>