<?xml version="1.0"?>
<svg width="127" height="126" xmlns="http://www.w3.org/2000/svg" xmlns:svg="http://www.w3.org/2000/svg">
 <defs>
  <linearGradient id="paint0_linear_4741_2341" x1="0.5" x2="0.5" y1="0" y2="1">
   <stop stop-color="#AFC1DC"/>
   <stop offset="1" stop-color="#E2E5ED"/>
  </linearGradient>
 </defs>
 <g class="layer">
  <title>Layer 1</title>
  <rect fill="url(#paint0_linear_4741_2341)" height="116" id="svg_12" rx="15" ry="15" width="116" x="5.2" y="4.95"/>
  <path d="m78.73,46.33c-11.31,0 -35.78,-2.95 -35.78,-2.95c0,0 -4.89,5.39 -7.72,8.21c-5.27,5.27 -4.81,11.94 -5.51,20.26c0.87,23.11 15.67,41.53 33.85,41.53c18.08,0 32.82,-18.21 33.84,-41.15c-1,-10.26 -7.91,-25.9 -18.68,-25.9z" fill="#F7DECE" id="svg_2"/>
  <path d="m63.57,102.07c-6.63,0 -10.11,-3.28 -10.48,-3.66c-0.53,-0.52 -0.84,-1.24 -0.84,-1.99c-0.01,-0.75 0.29,-1.47 0.81,-2.01c0.53,-0.53 1.25,-0.83 2,-0.84c0.75,0 1.47,0.29 2,0.82c0.15,0.13 2.28,2.02 6.51,2.02c4.3,0 6.43,-1.95 6.52,-2.03c0.55,-0.51 1.27,-0.79 2.01,-0.77c0.74,0.02 1.45,0.32 1.97,0.85c0.52,0.53 0.81,1.24 0.81,1.98c-0.01,0.74 -0.3,1.45 -0.82,1.97c-0.38,0.38 -3.85,3.66 -10.49,3.66zm2.83,-14.14l-5.65,0c-0.75,0 -1.47,-0.3 -2,-0.83c-0.53,-0.53 -0.83,-1.25 -0.83,-2c0,-0.75 0.3,-1.47 0.83,-2c0.53,-0.53 1.25,-0.83 2,-0.83l5.65,0c0.75,0 1.47,0.3 2,0.83c0.53,0.53 0.83,1.25 0.83,2c0,0.75 -0.3,1.47 -0.83,2c-0.53,0.53 -1.25,0.83 -2,0.83z" fill="#C1694F" id="svg_3"/>
  <path d="m49.43,76.62c-0.75,0 -1.47,-0.3 -2,-0.83c-0.53,-0.53 -0.82,-1.25 -0.82,-2l0,-5.66c0,-0.75 0.29,-1.47 0.82,-2c0.53,-0.53 1.25,-0.83 2,-0.83c0.75,0 1.47,0.3 2,0.83c0.53,0.53 0.83,1.25 0.83,2l0,5.66c0,0.75 -0.3,1.47 -0.83,2c-0.53,0.53 -1.25,0.83 -2,0.83zm28.28,0c-0.75,0 -1.47,-0.3 -2,-0.83c-0.53,-0.53 -0.82,-1.25 -0.82,-2l0,-5.66c0,-0.75 0.29,-1.47 0.82,-2c0.53,-0.53 1.25,-0.83 2,-0.83c0.75,0 1.47,0.3 2,0.83c0.53,0.53 0.83,1.25 0.83,2l0,5.66c0,0.75 -0.3,1.47 -0.83,2c-0.53,0.53 -1.25,0.83 -2,0.83z" fill="#662113" id="svg_4"/>
  <path d="m63.57,23.12c23.2,0 37.7,17.12 37.7,31.39c0,14.26 -2.91,19.98 -5.8,14.26c-2.91,-5.7 -5.8,-14.24 -5.8,-14.24c0,0 -9.84,6.38 -17.55,-2.88c0,0 3.05,17.12 -14.35,0c0,0 2.9,11.42 -14.5,-2.85c0,0 -8.7,5.71 -11.6,19.97c-0.81,3.96 -5.8,0 -5.8,-14.26c-0.01,-14.27 11.59,-31.39 37.7,-31.39z" fill="#126a9c" id="svg_5"/>
  <circle cx="79.72" cy="87.75" fill="#FF9494" id="svg_6" r="1.08"/>
  <circle cx="81.34" cy="90.44" fill="#FF9494" id="svg_7" r="0.54"/>
  <circle cx="79.18" cy="93.67" fill="#FF9494" id="svg_8" r="1.62"/>
  <circle cx="84.03" cy="94.21" fill="#FF9494" id="svg_9" r="1.08"/>
  <circle cx="86.72" cy="90.44" fill="#FF9494" id="svg_10" r="1.62"/>
  <rect fill="url(#paint0_linear_4741_2341)" height="138" id="svg_11" width="138" x="-496.8" y="-316.8"/>
 </g>
</svg>