<?xml version="1.0"?>
<svg width="92" height="92" xmlns="http://www.w3.org/2000/svg" xmlns:svg="http://www.w3.org/2000/svg" preserveAspectRatio="xMidYMid meet" version="1.0">
 <g class="layer">
  <title>Layer 1</title>
  <!-- Cross (✗) in green -->
  <!-- Underline in green -->
  <!-- All other elements in blue -->
  <g id="svg_12" transform="translate(0 1.38889) translate(0 -1.38889) matrix(0.338468 0 0 0.329108 -39.2508 -111.164)">
   <path d="m253.88,406.3c-5.73,3.7 -6.04,5.2 -6.04,27.4l0,20.3l-19.97,0c-31.23,0 -31.23,0 -31.23,26.5c0,26.8 -0.41,26.5 30.72,26.5l20.48,0l0,20c0,29.8 -0.72,29 27.34,29l19.76,0l3.28,-2.9l3.38,-2.9l0.31,-21.6l0.31,-21.6l20.58,0c30.72,0 30.52,0.2 30.52,-26c0,-26.7 0.2,-26.5 -29.9,-26.5l-21.3,0l0,-20.3c0,-30.3 0.1,-30.2 -27.45,-30.2c-16.28,0 -17.51,0.1 -20.79,2.3z" fill="#2F9650" id="svg_2"/>
   <path d="m276.31,343.5c-45.16,8.3 -90.12,39.7 -120.74,84.3c-17.51,25.5 -26.01,50.1 -27.24,78.7c-1.43,34.2 10.65,63.6 34,82.8c19.05,15.7 39.84,22.7 67.08,22.7c40.76,0 77.73,-16.1 108.04,-47.1c16.39,-16.8 29.19,-36.1 35.84,-54.1c3.69,-10 5.43,-18.8 3.89,-18.8c-0.51,0 -2.97,3.2 -5.53,7.1c-15.57,24.3 -22.63,33.2 -34.82,44.3c-20.48,18.5 -44.14,30.9 -69.54,36.2c-12.7,2.7 -36.46,2.5 -47.62,-0.4c-10.75,-2.8 -25.19,-9.9 -32.36,-15.9c-19.25,-16.3 -28.57,-37.1 -28.57,-64.4c0,-17.8 4.2,-35 12.8,-52.4c13.83,-28.1 44.24,-56.8 73.43,-69.3c16.49,-7.1 26.73,-9.3 44.75,-9.9c23.35,-0.8 37.17,2.2 51.51,11.3c19.15,12 29.29,38.3 28.26,73.2c-0.31,12.4 0.31,12.8 4.3,2.4c5.73,-14.8 6.66,-41 2.15,-58.2c-6.96,-26.1 -24.07,-43.6 -50.28,-51.1c-10.04,-2.8 -37.28,-3.6 -49.36,-1.4z" fill="#126A9C" id="svg_4"/>
  </g>
 </g>
</svg>