<?xml version="1.0"?>
<svg width="126" height="126" xmlns="http://www.w3.org/2000/svg" xmlns:svg="http://www.w3.org/2000/svg">
 <mask height="83" id="mask0_4741_2378" maskUnits="userSpaceOnUse" width="68" x="29" y="23">
  <path d="m64.58,87.62c0,-0.76 -0.28,-1.49 -0.93,-1.97c-0.46,-0.34 -0.85,-0.71 -1.17,-1.14c-0.18,-0.24 -0.33,-0.49 -0.46,-0.74c-0.15,-0.29 -0.27,-0.58 -0.36,-0.87c-0.11,-0.33 -0.18,-0.66 -0.24,-0.98c-0.06,-0.37 -0.09,-0.72 -0.12,-1.06c-0.02,-0.39 -0.02,-0.77 -0.02,-1.13c0,-0.32 -0.01,-0.64 -0.01,-0.94l0,-0.21l0,-1.47l0,-0.59c0,0 0,-8.1 0,-10.93c0,-1.34 -0.38,-2.57 -1.57,-3.76c-2.64,-2.64 -6.69,-1.62 -6.94,-1.7l-9.18,2.24c2.38,3.23 5.7,5.82 9.75,7.3l0,3.42c-13.7,3.85 -23.65,15.71 -23.65,32.44l13.01,0l9.02,0l0,-1.95c0,-1.03 0.05,-1.97 0.16,-2.83c0.11,-0.86 0.28,-1.65 0.52,-2.38c0.15,-0.48 0.35,-0.94 0.57,-1.37c0.3,-0.57 0.67,-1.08 1.1,-1.54c0.24,-0.26 2.04,-2.28 4.64,-2.28c4.19,0 5.88,-2.15 5.88,-5.56z" fill="white" id="svg_1"/>
  <path d="m71.9,72.73l0,-5.06c3.86,-2.44 7.63,-9.84 7.63,-18.76l0,-5.81c-0.56,-11.65 -10.47,-20.64 -22.12,-20.07c-11.21,0.55 -19.96,9.76 -20.08,20.84l-4.64,6.36c-0.38,0.5 -0.56,1.05 -0.26,1.63c0.31,0.59 0.97,0.69 1.49,0.78l3.82,0.58l0.36,3.62c0,0 14.81,0.06 17.2,0.06c10.06,0 9.5,2.74 9.5,8.69c0,2.82 0,10.42 0,10.42l0,0.35c0,0.33 -0.01,0.64 -0.01,0.94c0,0.37 0.03,0.71 0.03,1.02c0,0.65 0.62,1.34 0.71,1.46c0.05,0.06 0.11,0.12 0.19,0.19c0.09,0.07 0.19,0.14 0.33,0.21c0.15,0.09 0.34,0.17 0.59,0.25c0.27,0.09 0.62,0.16 1.03,0.22c0.32,0.05 0.69,0.08 1.11,0.1c0.74,-0.04 1.56,0 2.4,0.2c5.55,1.27 9.47,9.99 3.92,16.75c-5.56,6.76 -13.66,4.41 -16.96,2.48c-0.8,-0.47 -2.2,-1.21 -2.46,-0.19c-0.11,0.43 -0.19,0.92 -0.25,1.46c-0.06,0.63 -0.1,1.34 -0.1,2.13l0,1.95l26.14,0l15.47,0c0,-17.3 -10.63,-29.38 -25.04,-32.8z" fill="#F7DECE" id="svg_2"/>
 </mask>
 <defs>
  <linearGradient id="paint0_linear_4741_2378" x1="0.5" x2="0.5" y1="0" y2="1">
   <stop stop-color="#AFC1DC"/>
   <stop offset="1" stop-color="#E2E5ED"/>
  </linearGradient>
 </defs>
 <g class="layer">
  <title>Layer 1</title>
  <rect fill="url(#paint0_linear_4741_2378)" height="115" id="svg_10" rx="15" ry="15" width="115" x="5.2" y="4.6"/>
  <path d="m64.58,87.62c0,-0.76 -0.28,-1.49 -0.93,-1.97c-0.46,-0.34 -0.86,-0.71 -1.17,-1.14c-0.18,-0.24 -0.33,-0.49 -0.46,-0.74c-0.15,-0.29 -0.27,-0.58 -0.36,-0.87c-0.11,-0.33 -0.19,-0.66 -0.24,-0.98c-0.06,-0.37 -0.1,-0.72 -0.12,-1.06c-0.02,-0.39 -0.03,-0.77 -0.03,-1.13c0,-0.32 0,-0.64 0,-0.94l0,-0.21l0,-1.47l0,-0.59c0,0 0,-8.1 0,-10.93c0,-1.34 -0.38,-2.57 -1.57,-3.76c-2.64,-2.64 -6.7,-1.62 -6.94,-1.7l-9.18,2.24c2.38,3.23 5.7,5.82 9.75,7.3l0,3.42c-13.7,3.85 -23.65,15.71 -23.65,32.44l13.01,0l9.02,0l0,-1.95c0,-1.03 0.05,-1.97 0.16,-2.83c0.11,-0.86 0.28,-1.65 0.51,-2.38c0.16,-0.48 0.35,-0.94 0.58,-1.37c0.3,-0.57 0.67,-1.08 1.09,-1.54c0.25,-0.26 2.05,-2.28 4.65,-2.28c4.19,0 5.88,-2.15 5.88,-5.56z" fill="#F7DECE" id="svg_4"/>
  <path d="m71.89,72.73l0,-5.06c3.87,-2.44 7.64,-9.84 7.64,-18.76l0,-5.81c-0.57,-11.65 -10.47,-20.64 -22.12,-20.07c-11.22,0.55 -19.96,9.76 -20.08,20.84l-4.64,6.36c-0.38,0.5 -0.56,1.05 -0.26,1.63c0.31,0.59 0.96,0.69 1.49,0.78l3.82,0.58l0.36,3.62c0,0 14.81,0.06 17.2,0.06c10.06,0 9.5,2.74 9.5,8.69c0,2.82 0,10.42 0,10.42l0,0.35c0,0.33 -0.01,0.64 -0.01,0.94c0,0.37 0.03,0.71 0.03,1.02c0,0.65 0.61,1.34 0.71,1.46c0.05,0.06 0.11,0.12 0.19,0.19c0.08,0.07 0.19,0.14 0.33,0.21c0.15,0.09 0.34,0.17 0.58,0.25c0.28,0.09 0.63,0.16 1.04,0.22c0.32,0.05 0.69,0.08 1.1,0.1c0.75,-0.04 1.57,0 2.41,0.2c5.55,1.27 9.47,9.99 3.91,16.75c-5.55,6.76 -13.65,4.41 -16.95,2.48c-0.8,-0.47 -2.2,-1.21 -2.47,-0.19c-0.1,0.43 -0.18,0.92 -0.24,1.46c-0.06,0.63 -0.1,1.34 -0.1,2.13l0,1.95l26.13,0l15.48,0c0,-17.3 -10.63,-29.38 -25.05,-32.8z" fill="#F7DECE" id="svg_5"/>
  <g id="svg_6" mask="url(#mask0_4741_2378)">
   <rect fill="#126a9c" height="33.63" id="svg_7" width="67.26" x="29.68" y="72.57"/>
  </g>
  <rect fill="url(#paint0_linear_4741_2378)" height="61" id="svg_8" width="61" x="-560.4" y="317"/>
  <rect fill="url(#paint0_linear_4741_2378)" height="240" id="svg_9" width="240" x="-518.4" y="-104"/>
 </g>
</svg>