<?xml version="1.0"?>
<svg width="126" height="126" xmlns="http://www.w3.org/2000/svg" xmlns:svg="http://www.w3.org/2000/svg">
 <defs>
  <linearGradient id="paint0_linear_4741_2362" x1="0.5" x2="0.5" y1="0" y2="1">
   <stop stop-color="#AFC1DC"/>
   <stop offset="1" stop-color="#E2E5ED"/>
  </linearGradient>
 </defs>
 <g class="layer">
  <title>Layer 1</title>
  <rect fill="#126a9c" height="61" id="svg_5" width="61" x="-503.8" y="135"/>
  <g id="svg_8">
   <rect fill="url(#paint0_linear_4741_2362)" height="114" id="svg_6" rx="15" ry="15" stroke-width="0" width="114" x="6.2" y="7"/>
   <path d="m47.25,48.23l0.54,-0.04c0.2,-0.03 0.39,-0.1 0.54,-0.21l0,0.01c0.51,1.77 1.14,3.65 1.93,5.6c1.01,2.57 2.01,4.67 3.13,6.71l-0.16,-0.31c-0.09,1.4 -0.2,2.84 -0.35,4.23c-0.07,0.86 -0.24,1.66 -0.49,2.41l0.02,-0.07c-0.05,0.02 -0.12,8.01 -0.12,8.01c0.01,5.21 3.61,9.57 8.46,10.73l0.08,0.01c0.22,-0.56 0.75,-0.94 1.37,-0.94l2.21,0c0.62,0 1.15,0.39 1.37,0.93l0.01,0.01c4.94,-1.16 8.56,-5.52 8.58,-10.73c0,0 -0.14,-7.96 -0.21,-8.01c-0.21,-0.68 -0.38,-1.47 -0.47,-2.28l0,-0.06c-0.14,-1.4 -0.22,-2.81 -0.35,-4.24c0.95,-1.71 1.95,-3.81 2.82,-5.98l0.15,-0.41c0.79,-1.96 1.4,-3.82 1.94,-5.61c0.15,0.11 0.33,0.18 0.53,0.21l0.01,0l0.54,0.04c0.65,0.07 1.23,-0.47 1.28,-1.3l0.59,-7.43c0,-0.01 0,-0.01 0,-0.01c0,-0.63 -0.47,-1.14 -1.08,-1.22l0,0l-0.07,0c0.15,-1.08 0.24,-2.33 0.24,-3.6c0,-2.76 -0.41,-5.43 -1.17,-7.94l0.05,0.19c-2.22,-4.87 -6.62,-8.41 -11.93,-9.4l-0.1,-0.01c-1.14,-0.24 -2.46,-0.39 -3.82,-0.43l-0.03,0l-0.05,0c-1.38,0.02 -2.71,0.18 -4,0.45l0.14,-0.02c-5.39,1.02 -9.79,4.55 -11.98,9.31l-0.04,0.1c-0.72,2.31 -1.13,4.97 -1.13,7.72c0,1.28 0.09,2.54 0.26,3.77l-0.02,-0.14c-0.61,0.07 -1.08,0.58 -1.08,1.2l0,0.03l0.58,7.43c0.06,0.86 0.64,1.37 1.27,1.3l0.01,-0.01z" fill="#F7DECE" id="svg_2"/>
   <path d="m104.55,97.42c-0.27,-11.7 -1.44,-14.35 -2.07,-16.14c-0.25,-0.72 -0.46,-5.58 -8.49,-8.74c-4.93,-1.94 -11.29,-1.98 -16.67,-4.25l0,6.32c-0.01,6.81 -4.88,12.47 -11.33,13.71l-0.09,0.01c-0.12,0.7 -0.72,1.22 -1.44,1.23l-0.07,0l0,4.78c0,4.66 3.78,8.44 8.45,8.44c4.66,0 8.44,-3.78 8.44,-8.44l0,-3.34c-2.34,-0.35 -4.11,-2.34 -4.11,-4.75c0,-2.65 2.15,-4.8 4.8,-4.8c2.65,0 4.8,2.15 4.8,4.8c0,2.1 -1.35,3.89 -3.23,4.54l-0.03,0.01l0,3.54l0,0.18c0,5.89 -4.78,10.67 -10.68,10.67c-5.89,0 -10.67,-4.78 -10.67,-10.67c0,-0.07 0,-0.13 0,-0.2l0,0.01l0,-4.81c-0.69,-0.05 -1.24,-0.57 -1.35,-1.23l0,-0.01c-6.51,-1.26 -11.36,-6.9 -11.37,-13.68l0,-6.38c-5.4,2.32 -11.8,2.37 -16.75,4.31c-8.06,3.15 -8.25,8.01 -8.5,8.74c-0.61,1.8 -1.8,4.44 -2.07,16.14c-0.04,1.54 0,3.9 4.65,5.97c10.1,3.96 23.12,5.19 35.96,6.08l1.23,0c12.86,-0.88 25.87,-2.11 35.96,-6.08c4.63,-2.05 4.67,-4.4 4.63,-5.96zm-56.51,-4.77l-4.79,0l0,4.81l-3.43,0l0,-4.8l-4.79,0l0,-3.42l4.79,0l0,-4.8l3.43,0l0,4.8l4.79,0l0,3.41z" fill="#126a9c" id="svg_3"/>
   <path d="m84.57,86.21c0,-1.43 -1.16,-2.6 -2.59,-2.6c-1.43,0 -2.59,1.16 -2.59,2.59c0,1.44 1.16,2.59 2.59,2.59c1.42,0 2.58,-1.15 2.59,-2.58z" fill="black" id="svg_4"/>
  </g>
 </g>
</svg>