<?xml version="1.0"?>
<svg width="127" height="126" xmlns="http://www.w3.org/2000/svg" xmlns:svg="http://www.w3.org/2000/svg">
 <mask height="126" id="mask0_4741_2340" maskUnits="userSpaceOnUse" width="127" x="0" y="0">
  <circle cx="63.7" cy="62.83" fill="url(#paint1_linear_4741_2340)" id="svg_1" r="62.83"/>
 </mask>
 <defs>
  <linearGradient id="paint0_linear_4741_2340" x1="0.5" x2="0.5" y1="0" y2="1">
   <stop stop-color="#AFC1DC"/>
   <stop offset="1" stop-color="#E2E5ED"/>
  </linearGradient>
  <linearGradient id="paint1_linear_4741_2340" x1="0.5" x2="0.5" y1="0" y2="1">
   <stop stop-color="#AFC1DC"/>
   <stop offset="1" stop-color="#E2E5ED"/>
  </linearGradient>
 </defs>
 <g class="layer">
  <title>Layer 1</title>
  <rect fill="url(#paint0_linear_4741_2340)" height="116" id="svg_28" rx="15" ry="15" width="116" x="5.2" y="5.2"/>
  <g id="svg_3" mask="url(#mask0_4741_2340)" transform="translate(0 -0.25) translate(0 -0.25) translate(0 -0.25) translate(0 -0.25) translate(0 -0.25) translate(0 -0.25) translate(0 -0.25) translate(0 -0.25) translate(0 -0.25) translate(0 -0.25) translate(0 -0.25) translate(0 -0.25) translate(0 -0.25) translate(0 -0.25) translate(0 -0.25) translate(0 -0.25) translate(0 -0.25) translate(0 -0.25) translate(0 -0.25) translate(0 -0.25) translate(0 -0.25) translate(0 -0.25)">
   <path d="m77.67,65.89l-12.96,0c-5.23,0 -9.72,4.49 -9.72,9.72l0,55.08l31.07,0l0,-26.11l1.33,-5.11l0,-23.86c0,-5.23 -4.49,-9.72 -9.72,-9.72z" fill="#126a9c" id="svg_4"/>
   <path d="m65.65,73.83c-3.48,0 -6.82,1.38 -9.28,3.84c-2.46,2.46 -3.84,5.8 -3.84,9.28c0,3.48 1.38,6.82 3.84,9.28c2.46,2.46 5.8,3.84 9.28,3.84l0,-26.24z" fill="#126a9c" id="svg_5"/>
   <path d="m65.65,76.74c-2.71,0 -5.3,1.08 -7.22,2.99c-1.91,1.92 -2.99,4.51 -2.99,7.22c0,2.71 1.08,5.3 2.99,7.22c1.92,1.91 4.51,2.99 7.22,2.99l0,-20.42z" fill="#126a9c" id="svg_6"/>
   <path d="m71.48,73.83c-3.48,0 -6.82,1.38 -9.28,3.84c-2.46,2.46 -3.84,5.8 -3.84,9.28c0,3.48 1.38,6.82 3.84,9.28c2.46,2.46 5.8,3.84 9.28,3.84l0,-26.24z" fill="#126a9c" id="svg_7"/>
   <path d="m71.48,76.74c-2.7,0 -5.3,1.08 -7.21,2.99c-1.92,1.92 -2.99,4.51 -2.99,7.22c0,2.71 1.07,5.3 2.99,7.22c1.91,1.91 4.51,2.99 7.21,2.99l0,-20.42z" fill="#126a9c" id="svg_8"/>
   <path d="m47.61,130.69l20.86,0l0,-41.55c-1.34,-0.24 -2.69,-0.36 -4.05,-0.37c-6.46,0 -12.65,2.57 -17.22,7.13c-4.56,4.57 -7.13,10.76 -7.13,17.21c0,6.92 2.9,13.15 7.54,17.58z" fill="#126a9c" id="svg_9"/>
   <path d="m67.95,78.7l0,13.1c-1.17,-0.21 -2.35,-0.31 -3.54,-0.32c-2.84,0 -5.65,0.56 -8.28,1.64c-2.62,1.09 -5.01,2.69 -7.02,4.69c-2.01,2.01 -3.6,4.4 -4.69,7.02c-1.08,2.63 -1.64,5.44 -1.64,8.28c0,3.45 0.82,6.83 2.39,9.89c1.58,3.06 3.86,5.7 6.66,7.69l31.2,0l0,-60.27l-15.08,8.28z" fill="#126a9c" id="svg_10"/>
   <path d="m84.43,72.37l14.14,14.91l-12.5,13.16l-0.01,8.88l-11.49,7.8l-7.7,-12.07l16.46,-16.95l-5.65,-5.6l6.75,-10.13z" fill="#126a9c" id="svg_11"/>
   <path d="m84.42,68.72l15.94,16.61c0,0 5.53,4.45 0,9.72c-3.32,3.16 -24.14,17.17 -24.14,17.17l-6.48,-6.48l17.66,-17.17l-9.73,-9.72l6.75,-10.13z" fill="#126a9c" id="svg_12"/>
   <path d="m72.45,106c-3.28,-1.56 -6.39,-1.35 -9.4,0.41c-1.43,0.84 -2.02,2.42 0.18,2.94c2.21,0.52 9.22,-3.35 9.22,-3.35z" fill="#EEC2AD" id="svg_13"/>
   <path d="m76.87,111.59c0.4,5.15 -6.5,9.96 -11.73,9.33c-3.74,-0.45 -6.99,-10.52 -2.56,-11.82c3.96,-1.16 5.05,-4.75 9.75,-3.41c3.72,1.07 4.39,3.92 4.54,5.9z" fill="#F7DECE" id="svg_14"/>
   <path d="m73.41,113.58l-0.62,-1.29c0,0 -2.25,3.35 -5.38,4.64c-2.37,0.97 -4.37,1.07 -5.41,0.89c0.45,0.86 0.45,1 1.04,1.55c3.26,0.11 8.47,-1.63 10.37,-5.79zm-6.47,-0.11c2.89,-1.98 3.73,-3.87 3.73,-3.87l-0.94,-1.19c0,0 -3.34,5.18 -9.27,4.91c0.05,0.72 -0.01,0.86 0.2,1.6c0.8,0.03 3.94,0.15 6.28,-1.45z" fill="#E0AA94" id="svg_15"/>
   <path d="m58.57,39.73c0.4,0.95 0.61,1.98 0.62,3.01c0,1.04 -0.19,2.07 -0.59,3.02c-0.39,0.96 -0.96,1.84 -1.69,2.57c-0.73,0.74 -1.6,1.32 -2.55,1.72c-0.96,0.4 -1.99,0.6 -3.02,0.6c-1.04,0 -2.07,-0.21 -3.02,-0.61c-0.96,-0.4 -1.83,-0.98 -2.56,-1.72c-0.73,-0.73 -1.31,-1.6 -1.7,-2.56c-0.4,-0.95 -0.61,-1.98 -0.62,-3.02c0,-1.03 0.2,-2.06 0.59,-3.02c0.39,-0.96 0.97,-1.83 1.7,-2.56c0.73,-0.74 1.6,-1.32 2.55,-1.72c0.96,-0.4 1.99,-0.6 3.02,-0.6c1.04,0 2.06,0.21 3.02,0.61c0.95,0.4 1.82,0.98 2.55,1.72c0.73,0.73 1.31,1.6 1.7,2.56z" fill="#292F33" id="svg_16"/>
   <path d="m74.35,60.11c3.51,-4.18 5.6,-9.53 3.8,-13.85l-2.97,-7.17c-16.08,6.06 -22.7,-2.25 -22.7,-2.25c0,0 3.15,7.57 -3.61,11.43l3.6,8.66c2.94,7.07 6.94,12.13 14,9.23l0.24,0.95c0.6,2.38 0.16,4.31 3.67,4.44c2.46,0.1 5.77,-4.28 5.17,-6.67l-1.2,-4.77z" fill="#F7DECE" id="svg_17"/>
   <path d="m93.09,41.49c2.41,-6.43 -3.38,-11.31 -8.3,-11.81c-2.98,-0.3 -5.68,1.6 -6.99,3.88c-5.98,-10.01 -14.93,-7.65 -20.62,-5.65c-6.03,2.12 -15.01,8.37 -11.49,15.08c3.52,6.71 15.28,3.82 15.28,3.82l4.26,6.86c-1.15,-5.9 2.77,-7.22 4.58,-5.93c1.9,1.36 0.64,5.7 1.51,7.42c0.87,1.71 3.88,4.06 3.88,4.06c1.85,-2.35 7.68,-10.43 4.95,-20.22c1.13,-0.42 2.83,-0.14 4.2,0.58c3.47,1.8 0.73,10.8 5.57,13.64c4.63,2.73 7.35,-1.02 7.35,-1.02c-4.75,0.15 -6.47,-4.57 -4.18,-10.71z" fill="#292F33" id="svg_18"/>
   <path d="m54.98,60.06l-0.9,0.38c-0.09,0.04 -0.19,0.06 -0.3,0.06c-0.1,0.01 -0.2,-0.01 -0.3,-0.05c-0.09,-0.04 -0.18,-0.1 -0.25,-0.17c-0.08,-0.07 -0.13,-0.16 -0.17,-0.25c-0.04,-0.1 -0.06,-0.2 -0.06,-0.3c0,-0.1 0.02,-0.21 0.06,-0.3c0.04,-0.1 0.1,-0.18 0.17,-0.25c0.07,-0.08 0.16,-0.13 0.26,-0.17l0.9,-0.37c0.09,-0.05 0.2,-0.07 0.3,-0.08c0.11,0 0.21,0.02 0.31,0.06c0.09,0.03 0.18,0.09 0.26,0.16c0.07,0.08 0.13,0.16 0.17,0.26c0.04,0.1 0.06,0.2 0.06,0.31c0,0.1 -0.02,0.2 -0.06,0.3c-0.05,0.09 -0.11,0.18 -0.18,0.25c-0.08,0.07 -0.17,0.13 -0.27,0.16z" fill="#BF6952" id="svg_19"/>
   <path d="m55.42,54.02c-0.37,0.16 -0.8,0.16 -1.18,0c-0.38,-0.15 -0.68,-0.45 -0.83,-0.83l-0.6,-1.43c-0.16,-0.38 -0.16,-0.81 0,-1.19c0.15,-0.38 0.45,-0.68 0.83,-0.83c0.38,-0.16 0.81,-0.16 1.19,-0.01c0.38,0.16 0.68,0.46 0.84,0.84l0.59,1.43c0.08,0.19 0.12,0.39 0.12,0.59c0,0.21 -0.04,0.41 -0.12,0.6c-0.08,0.18 -0.19,0.35 -0.33,0.5c-0.15,0.14 -0.32,0.26 -0.51,0.33z" fill="#662113" id="svg_20"/>
   <path d="m56.21,63.57c0.7,0.86 1.48,1.57 2.32,2.13c3.07,-1.77 3.29,-4.47 3.29,-4.47l-5.47,2.27l-0.14,0.07z" fill="#DF1F32" id="svg_21"/>
  </g>
 </g>
</svg>