<?xml version="1.0"?>
<svg width="800" height="320" xmlns="http://www.w3.org/2000/svg" xmlns:svg="http://www.w3.org/2000/svg" preserveAspectRatio="xMidYMid meet" version="1.0">
 <g class="layer" display="inline">
  <title>Layer 1</title>
  <g id="svg_1" transform="translate(-50 -128) matrix(0.1 0 0 -0.1 -68 820)">
   <!-- Cross (✗) in green -->
   <path d="m2509,6177c-56,-37 -59,-52 -59,-274l0,-203l-195,0c-305,0 -305,0 -305,-265c0,-268 -4,-265 300,-265l200,0l0,-200c0,-298 -7,-290 267,-290l193,0l32,29l33,29l3,216l3,216l201,0c300,0 298,-2 298,260c0,267 2,265 -292,265l-208,0l0,203c0,303 1,302 -268,302c-159,0 -171,-1 -203,-23z" fill="#2F9650" id="svg_2"/>
   <!-- Underline in green -->
   <path d="m5370,4349c-265,-8 -812,-42 -1060,-65c-454,-42 -839,-114 -1090,-204c-135,-48 -182,-72 -236,-122c-37,-34 -44,-46 -44,-79c0,-67 58,-98 158,-85c26,3 102,22 167,41c339,100 616,155 1126,220c748,97 1208,126 2019,126c894,1 1671,-51 2275,-152c99,-17 201,-34 226,-38c120,-20 114,54 -6,84c-101,25 -581,112 -735,134c-876,122 -1840,171 -2800,140z" fill="#2F9650" id="svg_3"/>
   <!-- All other elements in blue -->
   <path d="m2728,6805c-441,-83 -880,-397 -1179,-843c-171,-255 -254,-501 -266,-787c-14,-342 104,-636 332,-828c186,-157 389,-227 655,-227c398,0 759,161 1055,471c160,168 285,361 350,541c36,100 53,188 38,188c-5,0 -29,-32 -54,-71c-152,-243 -221,-332 -340,-443c-200,-185 -431,-309 -679,-362c-124,-27 -356,-25 -465,4c-105,28 -246,99 -316,159c-188,163 -279,371 -279,644c0,178 41,350 125,524c135,281 432,568 717,693c161,71 261,93 437,99c228,8 363,-22 503,-113c187,-120 286,-383 276,-732c-3,-124 3,-128 42,-24c56,148 65,410 21,582c-68,261 -235,436 -491,511c-98,28 -364,36 -482,14z" fill="#126A9C" id="svg_4"/>
   <path d="m4130,5450l0,-582l238,5c187,3 248,8 292,22c166,52 254,138 307,300c21,66 27,105 30,220c9,238 -28,368 -134,474c-112,111 -186,131 -500,138l-233,5l0,-582zm472,338c97,-45 144,-134 155,-294c10,-146 -28,-287 -94,-344c-52,-46 -99,-62 -200,-67l-93,-6l0,373l0,372l88,-4c66,-3 100,-10 144,-30z" fill="#126A9C" id="svg_5"/>
   <path d="m6070,5450l0,-580l115,0l115,0l2,366l3,365l199,-365l199,-366l133,0l134,0l0,580l0,580l-115,0l-115,0l-2,-377l-3,-378l-80,151c-44,83 -134,253 -200,377l-120,226l-132,1l-133,0l0,-580z" fill="#126A9C" id="svg_6"/>
   <path d="m5527,5750c-39,-12 -93,-55 -127,-102l-29,-39l-6,68l-7,68l-109,0l-109,0l0,-437l0,-438l115,0l115,0l0,228l0,227l29,61c41,87 86,119 162,118l58,-1l25,111c15,61 26,116 26,122c0,22 -89,30 -143,14z" fill="#126A9C" id="svg_7"/>
   <path d="m7385,5747c-140,-47 -235,-153 -266,-296c-18,-86 -7,-285 20,-354c35,-89 95,-156 176,-197c67,-34 70,-35 189,-35c112,0 125,2 184,29c142,66 222,216 222,415c-1,143 -53,286 -133,357c-70,64 -137,88 -252,91c-63,2 -115,-2 -140,-10zm203,-207c58,-35 77,-95 77,-235c0,-109 -2,-124 -25,-164c-36,-63 -68,-84 -132,-84c-61,-1 -97,18 -127,67c-44,72 -52,242 -16,334c10,23 33,55 51,72c29,25 43,30 87,30c35,0 63,-7 85,-20z" fill="#126A9C" id="svg_8"/>
   <path d="m7940,5739c0,-6 43,-181 96,-388c53,-207 102,-398 108,-426l11,-50l121,-3l121,-3l26,93c14,51 47,173 73,272c27,98 50,173 52,166c3,-8 35,-129 72,-269l67,-256l116,-3l115,-3l15,53c40,139 211,776 215,801l4,27l-115,0l-114,0l-21,-87c-11,-49 -40,-177 -64,-285c-23,-109 -46,-198 -50,-198c-5,0 -8,8 -8,18c0,9 -29,136 -63,282l-63,265l-106,2c-73,1 -108,-2 -111,-10c-2,-7 -35,-138 -72,-292c-38,-154 -70,-275 -71,-270c-2,6 -28,129 -59,275c-31,146 -58,273 -61,283c-5,15 -19,17 -120,17c-77,0 -114,-4 -114,-11z" fill="#126A9C" id="svg_9"/>
   <path d="m5681,5142c-50,-25 -74,-63 -74,-124c-7,-97 49,-158 145,-158c90,0 142,55 142,150c0,38 -6,65 -20,88c-36,58 -122,79 -189,44l-4,0z" fill="#126A9C" id="svg_10"/>
  </g>
 </g>
</svg>