<?xml version="1.0" encoding="utf-8"?>
<!DOCTYPE svg PUBLIC "-//W3C//DTD SVG 20010904//EN" "http://www.w3.org/TR/2001/REC-SVG-20010904/DTD/svg10.dtd">
<svg height="1024.000000pt" preserveAspectRatio="xMidYMid meet" version="1.0" viewBox="0 0 1024.000000 1024.000000" width="1024.000000pt" xmlns="http://www.w3.org/2000/svg">
<g stroke="none" transform="translate(0.000000,1024.000000) scale(0.100000,-0.100000)">
<!-- Cross (✗) in green -->
<path d="M2509 6177 c-56 -37 -59 -52 -59 -274 l0 -203 -195 0 c-305 0 -305 0 -305 -265 0 -268 -4 -265 300 -265 l200 0 0 -200 c0 -298 -7 -290 267 -290 l193 0 32 29 33 29 3 216 3 216 201 0 c300 0 298 -2 298 260 0 267 2 265 -292 265 l-208 0 0 203 c0 303 1 302 -268 302 -159 0 -171 -1 -203 -23z" fill="#2F9650"/>
<!-- Underline in green -->
<path d="M5370 4349 c-265 -8 -812 -42 -1060 -65 -454 -42 -839 -114 -1090 -204 -135 -48 -182 -72 -236 -122 -37 -34 -44 -46 -44 -79 0 -67 58 -98 158 -85 26 3 102 22 167 41 339 100 616 155 1126 220 748 97 1208 126 2019 126 894 1 1671 -51 2275 -152 99 -17 201 -34 226 -38 120 -20 114 54 -6 84 -101 25 -581 112 -735 134 -876 122 -1840 171 -2800 140z" fill="#2F9650"/>
<!-- All other elements in blue -->
<path d="M2728 6805 c-441 -83 -880 -397 -1179 -843 -171 -255 -254 -501 -266 -787 -14 -342 104 -636 332 -828 186 -157 389 -227 655 -227 398 0 759 161 1055 471 160 168 285 361 350 541 36 100 53 188 38 188 -5 0 -29 -32 -54 -71 -152 -243 -221 -332 -340 -443 -200 -185 -431 -309 -679 -362 -124 -27 -356 -25 -465 4 -105 28 -246 99 -316 159 -188 163 -279 371 -279 644 0 178 41 350 125 524 135 281 432 568 717 693 161 71 261 93 437 99 228 8 363 -22 503 -113 187 -120 286 -383 276 -732 -3 -124 3 -128 42 -24 56 148 65 410 21 582 -68 261 -235 436 -491 511 -98 28 -364 36 -482 14z" fill="#126A9C"/>
<path d="M4130 5450 l0 -582 238 5 c187 3 248 8 292 22 166 52 254 138 307 300 21 66 27 105 30 220 9 238 -28 368 -134 474 -112 111 -186 131 -500 138 l-233 5 0 -582z m472 338 c97 -45 144 -134 155 -294 10 -146 -28 -287 -94 -344 -52 -46 -99 -62 -200 -67 l-93 -6 0 373 0 372 88 -4 c66 -3 100 -10 144 -30z" fill="#126A9C"/>
<path d="M6070 5450 l0 -580 115 0 115 0 2 366 3 365 199 -365 199 -366 133 0 134 0 0 580 0 580 -115 0 -115 0 -2 -377 -3 -378 -80 151 c-44 83 -134 253 -200 377 l-120 226 -132 1 -133 0 0 -580z" fill="#126A9C"/>
<path d="M5527 5750 c-39 -12 -93 -55 -127 -102 l-29 -39 -6 68 -7 68 -109 0 -109 0 0 -437 0 -438 115 0 115 0 0 228 0 227 29 61 c41 87 86 119 162 118 l58 -1 25 111 c15 61 26 116 26 122 0 22 -89 30 -143 14z" fill="#126A9C"/>
<path d="M7385 5747 c-140 -47 -235 -153 -266 -296 -18 -86 -7 -285 20 -354 35 -89 95 -156 176 -197 67 -34 70 -35 189 -35 112 0 125 2 184 29 142 66 222 216 222 415 -1 143 -53 286 -133 357 -70 64 -137 88 -252 91 -63 2 -115 -2 -140 -10z m203 -207 c58 -35 77 -95 77 -235 0 -109 -2 -124 -25 -164 -36 -63 -68 -84 -132 -84 -61 -1 -97 18 -127 67 -44 72 -52 242 -16 334 10 23 33 55 51 72 29 25 43 30 87 30 35 0 63 -7 85 -20z" fill="#126A9C"/>
<path d="M7940 5739 c0 -6 43 -181 96 -388 53 -207 102 -398 108 -426 l11 -50 121 -3 121 -3 26 93 c14 51 47 173 73 272 27 98 50 173 52 166 3 -8 35 -129 72 -269 l67 -256 116 -3 115 -3 15 53 c40 139 211 776 215 801 l4 27 -115 0 -114 0 -21 -87 c-11 -49 -40 -177 -64 -285 -23 -109 -46 -198 -50 -198 -5 0 -8 8 -8 18 0 9 -29 136 -63 282 l-63 265 -106 2 c-73 1 -108 -2 -111 -10 -2 -7 -35 -138 -72 -292 -38 -154 -70 -275 -71 -270 -2 6 -28 129 -59 275 -31 146 -58 273 -61 283 -5 15 -19 17 -120 17 -77 0 -114 -4 -114 -11z" fill="#126A9C"/>
<path d="M5681 5142 c-50 -25 -74 -63 -74 -124 -7 -97 49 -158 145 -158 90 0 142 55 142 150 0 38 -6 65 -20 88 -36 58 -122 79 -189 44z" fill="#126A9C"/>
</g>
</svg>
