<?xml version="1.0"?>
<svg width="127" height="126" xmlns="http://www.w3.org/2000/svg" xmlns:svg="http://www.w3.org/2000/svg">
 <defs>
  <linearGradient id="paint0_linear_4741_2343" x1="0.5" x2="0.5" y1="0" y2="1">
   <stop stop-color="#AFC1DC"/>
   <stop offset="1" stop-color="#E2E5ED"/>
  </linearGradient>
 </defs>
 <g class="layer">
  <title>Layer 1</title>
  <rect fill="url(#paint0_linear_4741_2343)" height="116" id="svg_9" rx="15" ry="15" width="116" x="5.2" y="4.95"/>
  <circle cx="66.32" cy="54.79" fill="#126a9c" id="svg_2" r="26.64" transform="matrix(1 0 0 1 0 0)"/>
  <path d="m72.88,57.51c-1.37,0 -2.45,-0.26 -3.33,-0.67c-1.3,-0.6 -2.15,-1.54 -2.68,-2.47c-0.27,-0.46 -0.45,-0.92 -0.57,-1.33c-0.11,-0.4 -0.16,-0.76 -0.16,-0.97c0,-0.4 -0.33,-0.73 -0.73,-0.73c-0.4,0 -0.73,0.33 -0.73,0.73c0,0.26 0.03,0.55 0.09,0.87c0.12,0.56 0.33,1.21 0.67,1.87c0.52,1 1.33,2.05 2.56,2.84c0.31,0.2 0.64,0.38 0.99,0.54c0.06,0.25 0.14,0.67 0.14,1.19c0,0.37 -0.05,0.79 -0.16,1.22c-0.11,0.42 -0.29,0.86 -0.59,1.29c-0.23,0.33 -0.15,0.78 0.19,1.01c0.33,0.23 0.78,0.15 1.01,-0.18c0.4,-0.58 0.66,-1.18 0.81,-1.75c0.15,-0.57 0.2,-1.12 0.2,-1.59c0,-0.24 -0.01,-0.46 -0.03,-0.67c0.7,0.17 1.47,0.26 2.32,0.26c0.4,0 0.73,-0.32 0.73,-0.73c0,-0.4 -0.33,-0.73 -0.73,-0.73z" fill="#BCCBE1" id="svg_3"/>
  <path d="m76.12,48.1c-0.35,-0.2 -0.79,-0.08 -0.99,0.28c-0.2,0.35 -0.08,0.79 0.27,0.99c0.54,0.31 0.87,0.65 1.09,1c-0.9,0.32 -1.7,0.45 -2.4,0.45c-1.04,0 -1.88,-0.27 -2.6,-0.69c-0.71,-0.42 -1.28,-0.99 -1.72,-1.58c-0.71,-0.98 -1.65,-1.85 -2.75,-2.49c-1.1,-0.63 -2.37,-1.03 -3.74,-1.03c-1.19,0 -2.45,0.31 -3.7,0.99c-0.51,0.28 -0.96,0.61 -1.34,0.97c-1.52,0.58 -2.83,0.8 -3.94,0.8c-1.58,-0.01 -2.76,-0.43 -3.55,-0.84c-0.39,-0.21 -0.69,-0.42 -0.88,-0.57c-0.09,-0.08 -0.17,-0.14 -0.21,-0.18l-0.04,-0.04l-0.01,-0.01c-0.28,-0.28 -0.74,-0.29 -1.03,-0.01c-0.29,0.28 -0.3,0.74 -0.02,1.03c0.04,0.04 0.54,0.56 1.51,1.07c0.42,0.22 0.93,0.44 1.53,0.62c-0.16,0.22 -0.38,0.55 -0.61,0.96c-0.45,0.8 -0.97,1.92 -1.24,3.24c-0.08,0.4 0.18,0.78 0.57,0.86c0.4,0.08 0.78,-0.17 0.86,-0.57c0.23,-1.11 0.68,-2.1 1.08,-2.81c0.2,-0.35 0.38,-0.63 0.52,-0.82c0.06,-0.09 0.12,-0.17 0.15,-0.21c0.02,-0.02 0.03,-0.04 0.04,-0.05l0.01,-0.01l0,0c0.07,-0.09 0.11,-0.18 0.14,-0.28c0.37,0.05 0.76,0.08 1.18,0.08c0.76,0 1.61,-0.09 2.52,-0.3c-0.46,0.97 -0.64,1.98 -0.64,2.91c0,0.93 0.18,1.78 0.5,2.45c0.17,0.36 0.61,0.52 0.97,0.35c0.36,-0.17 0.52,-0.61 0.35,-0.97c-0.21,-0.43 -0.36,-1.09 -0.36,-1.83c0,-0.8 0.17,-1.68 0.59,-2.48c0.41,-0.8 1.05,-1.53 2.05,-2.07c1.05,-0.58 2.06,-0.82 3,-0.82c1.08,0 2.1,0.31 3.01,0.84c0.91,0.52 1.7,1.26 2.31,2.08c0.53,0.73 1.24,1.44 2.15,1.98c0.92,0.54 2.04,0.9 3.34,0.89c0.85,0 1.78,-0.15 2.79,-0.49l0,0.05c0,0.36 -0.06,0.69 -0.11,0.92c-0.03,0.11 -0.06,0.2 -0.08,0.26c-0.01,0.03 -0.01,0.05 -0.02,0.06l0,0.01l0,0.01c-0.15,0.37 0.03,0.79 0.4,0.94c0.38,0.15 0.81,-0.03 0.96,-0.4c0.02,-0.06 0.31,-0.79 0.31,-1.8c0,-0.58 -0.1,-1.26 -0.44,-1.93c-0.33,-0.68 -0.91,-1.32 -1.78,-1.81z" fill="#BCCBE1" id="svg_4"/>
  <path d="m57.35,42.63c0.51,-0.59 1.22,-1.06 2.04,-1.37c0.81,-0.32 1.72,-0.47 2.57,-0.47c0.83,0 1.6,0.15 2.16,0.41c0.37,0.17 0.81,0.01 0.97,-0.35c0.17,-0.37 0.01,-0.81 -0.35,-0.97c-0.82,-0.38 -1.78,-0.55 -2.78,-0.55c-1.03,0 -2.1,0.18 -3.1,0.57c-0.99,0.38 -1.92,0.97 -2.62,1.79c-0.26,0.31 -0.22,0.77 0.08,1.03c0.31,0.26 0.78,0.22 1.03,-0.09z" fill="#BCCBE1" id="svg_5"/>
  <path d="m68.65,23.2c-18.02,-1.11 -33.19,10.22 -32.85,28.69l-0.01,1.67l-7.83,13.83c-0.42,0.75 -0.46,1.65 -0.1,2.43c0.35,0.78 1.06,1.34 1.9,1.5l4.84,1.34l1.52,14.66c0.04,1.41 0.67,2.74 1.73,3.67c1.07,0.93 2.48,1.37 3.88,1.21l3.87,0.31c0.75,-0.09 1.5,0.15 2.07,0.66c0.56,0.51 0.89,1.23 0.89,1.99l0,11.52l32.69,0c0,0 0,-5.59 0,-7.82c0,-2.23 0.77,-7.32 2.22,-9.65c5.3,-8.48 13.93,-12.99 15.39,-30.36c1.45,-17.38 -8.92,-34.34 -30.21,-35.65zm21.75,29.79c-0.73,1.22 -1.92,1.97 -3.21,2.19c-0.4,0.07 -0.67,0.45 -0.6,0.85c0.07,0.39 0.45,0.66 0.85,0.59c0.29,-0.05 0.58,-0.12 0.87,-0.21c0.31,0.64 0.47,1.33 0.47,2.03c0,0.73 -0.18,1.47 -0.51,2.13c-0.34,0.66 -0.83,1.25 -1.49,1.71c-0.82,0.58 -1.75,0.85 -2.68,0.85c-0.07,0 -0.14,-0.01 -0.22,-0.01c-0.01,-0.12 -0.03,-0.24 -0.05,-0.36l0,0c-0.16,-0.85 -0.49,-1.62 -0.94,-2.3l-0.06,-0.08l-0.07,-0.06c-0.55,-0.48 -1.29,-1.26 -1.86,-2.05c-0.28,-0.4 -0.52,-0.8 -0.69,-1.16c-0.16,-0.35 -0.24,-0.67 -0.24,-0.85c0,-0.08 0.01,-0.14 0.03,-0.18c0.01,-0.03 0.03,-0.05 0.06,-0.08c0.28,-0.29 0.28,-0.75 0,-1.04c-0.29,-0.28 -0.75,-0.28 -1.04,0c-0.18,0.18 -0.31,0.39 -0.39,0.62c-0.09,0.22 -0.12,0.46 -0.12,0.68c0,0.51 0.16,0.99 0.37,1.46c0.33,0.71 0.81,1.42 1.34,2.06c0.5,0.6 1.02,1.15 1.5,1.56c0.32,0.5 0.56,1.07 0.68,1.69c0.04,0.26 0.07,0.52 0.07,0.77l0,0c0,0.04 0.01,0.07 0.01,0.1c0,1.11 -0.4,2.15 -1.07,2.98c-0.68,0.82 -1.63,1.41 -2.76,1.63c-0.29,0.05 -0.59,0.08 -0.87,0.08c-1.55,0 -2.99,-0.78 -3.85,-2.02c0.46,-0.47 0.86,-1.02 1.16,-1.65l0,0c0.38,-0.77 0.57,-1.59 0.61,-2.4c0.02,-0.41 -0.3,-0.75 -0.7,-0.77c-0.4,-0.01 -0.74,0.3 -0.76,0.7c-0.03,0.62 -0.18,1.24 -0.46,1.84l-0.01,0c-0.3,0.63 -0.73,1.17 -1.24,1.59l0,0c-0.84,0.68 -1.9,1.06 -2.99,1.06c-0.68,0 -1.37,-0.15 -2.03,-0.46c-1.22,-0.59 -2.06,-1.63 -2.44,-2.83l0,0c-0.14,-0.45 -0.21,-0.93 -0.21,-1.4c0,-0.69 0.15,-1.38 0.46,-2.04c0.18,-0.36 0.03,-0.8 -0.34,-0.97c-0.36,-0.18 -0.8,-0.03 -0.97,0.34c-0.42,0.86 -0.62,1.77 -0.62,2.67c0,0.43 0.06,0.86 0.14,1.28c-0.57,0.31 -1.21,0.51 -1.91,0.56l0,0c-0.11,0.01 -0.22,0.02 -0.33,0.02c-1.1,0 -2.12,-0.39 -2.92,-1.03c-0.71,-0.56 -1.25,-1.32 -1.54,-2.21c0.52,-0.5 0.94,-1.1 1.26,-1.76c0.17,-0.36 0.01,-0.8 -0.35,-0.97c-0.37,-0.17 -0.81,-0.02 -0.98,0.35c-0.28,0.61 -0.71,1.16 -1.22,1.59c-0.73,0.62 -1.66,1.02 -2.69,1.09l0,0c-0.11,0.01 -0.22,0.01 -0.33,0.01c-2.32,0 -4.3,-1.71 -4.64,-4l0,-0.01l0,0c-0.02,-0.11 -0.03,-0.23 -0.04,-0.35c-0.01,-0.11 -0.01,-0.22 -0.01,-0.34c0,-0.29 0.03,-0.58 0.08,-0.86c0.07,-0.4 -0.19,-0.78 -0.59,-0.85c-0.39,-0.08 -0.78,0.18 -0.85,0.58c-0.07,0.37 -0.1,0.75 -0.1,1.13l0,0.05c-0.66,-0.08 -1.3,-0.29 -1.87,-0.62c-0.72,-0.42 -1.33,-1.04 -1.76,-1.83c-0.38,-0.71 -0.55,-1.46 -0.55,-2.21c0,-0.96 0.3,-1.91 0.85,-2.7c0.21,0.3 0.45,0.58 0.72,0.85c0.62,0.61 1.33,1.05 2.09,1.35c0.38,0.14 0.8,-0.04 0.94,-0.42c0.15,-0.38 -0.04,-0.8 -0.41,-0.95c-0.58,-0.22 -1.12,-0.56 -1.59,-1.02l0,0c-0.42,-0.41 -0.74,-0.87 -0.97,-1.37c-0.3,-0.63 -0.44,-1.31 -0.44,-1.99c0,-1.19 0.44,-2.36 1.33,-3.28c0.76,-0.77 1.72,-1.23 2.72,-1.36l0,0l0,0c0.21,-0.03 0.43,-0.05 0.64,-0.05c1.18,0 2.36,0.45 3.28,1.34c0.29,0.29 0.75,0.28 1.03,-0.01c0.29,-0.28 0.28,-0.75 -0.01,-1.03c-1.16,-1.14 -2.67,-1.72 -4.18,-1.75c0.17,-0.7 0.5,-1.35 0.96,-1.9c0.63,-0.76 1.5,-1.32 2.55,-1.56c0.35,-0.08 0.7,-0.12 1.05,-0.12c0.61,0 1.21,0.12 1.76,0.35c-0.16,0.54 -0.25,1.11 -0.25,1.71c0,0.4 0.33,0.73 0.73,0.73c0.41,0 0.73,-0.33 0.73,-0.73c0,-0.64 0.14,-1.25 0.36,-1.81c0.36,-0.85 0.95,-1.57 1.7,-2.08c0.76,-0.51 1.66,-0.81 2.64,-0.81c1.41,0 2.66,0.62 3.53,1.6c0.72,0.83 1.16,1.91 1.16,3.1c0,0.4 0.33,0.73 0.73,0.73c0.4,0 0.73,-0.33 0.73,-0.73c0,-1.35 -0.43,-2.61 -1.17,-3.62c0.37,-0.52 0.86,-0.97 1.41,-1.3c0.7,-0.41 1.51,-0.65 2.39,-0.65c1,0 1.92,0.31 2.68,0.85c0.77,0.53 1.36,1.29 1.7,2.17l0,0c0.2,0.52 0.31,1.08 0.31,1.68c0,0.4 0.33,0.73 0.73,0.73c0.4,0 0.73,-0.33 0.73,-0.73c0,-0.61 -0.09,-1.19 -0.25,-1.74c0.86,-0.81 2.01,-1.26 3.2,-1.26c0.61,0 1.24,0.12 1.85,0.38c0.85,0.36 1.52,0.94 2.01,1.65c0.48,0.71 0.77,1.54 0.82,2.39c0,0.09 0.01,0.18 0.01,0.27c-0.01,0.62 -0.13,1.25 -0.39,1.85c-0.16,0.37 0.01,0.8 0.38,0.96c0.38,0.16 0.8,-0.01 0.97,-0.38c0.27,-0.63 0.42,-1.28 0.48,-1.94c0.71,0.06 1.41,0.27 2.03,0.64c0.7,0.41 1.31,1.02 1.72,1.81c0.36,0.68 0.52,1.4 0.53,2.12c0,0.33 -0.04,0.66 -0.11,0.98c-0.44,-0.17 -0.9,-0.29 -1.35,-0.36c-0.4,-0.05 -0.77,0.23 -0.83,0.63c-0.05,0.4 0.22,0.77 0.62,0.82c0.46,0.07 0.91,0.2 1.35,0.4c0.07,0.13 0.19,0.23 0.33,0.3c0.09,0.03 0.19,0.05 0.28,0.05c0.27,0.18 0.51,0.39 0.73,0.61l0,0c0.88,0.88 1.35,2.08 1.35,3.3c0,0.83 -0.22,1.66 -0.68,2.42z" fill="#F7DECE" id="svg_6"/>
  <path d="m82.81,46.53c-0.37,-0.31 -0.76,-0.57 -1.17,-0.75c-0.41,-0.18 -0.85,-0.29 -1.29,-0.29c-0.4,0 -0.73,0.33 -0.73,0.73c0,0.41 0.33,0.73 0.73,0.73c0.27,0 0.61,0.09 0.97,0.3c0.53,0.31 1.09,0.86 1.49,1.55c0.41,0.69 0.67,1.51 0.67,2.36c-0.01,0.94 -0.3,1.91 -1.1,2.88c-0.25,0.31 -0.21,0.77 0.1,1.03c0.31,0.26 0.78,0.21 1.03,-0.1c1,-1.21 1.43,-2.55 1.43,-3.81c0,-0.76 -0.15,-1.49 -0.41,-2.16c-0.39,-0.99 -1,-1.84 -1.72,-2.47z" fill="#C0CDE2" id="svg_7"/>
  <path d="m77.75,43.22c-2.01,0 -3.62,-0.74 -4.74,-1.71c-0.56,-0.48 -0.98,-1.02 -1.26,-1.54c-0.29,-0.52 -0.42,-1.01 -0.42,-1.38c0,-0.4 -0.32,-0.73 -0.73,-0.73c-0.4,0 -0.73,0.33 -0.73,0.73c0.01,0.69 0.22,1.39 0.59,2.08c0.39,0.71 0.96,1.4 1.68,2.01c-0.14,0.21 -0.34,0.47 -0.6,0.75c-0.56,0.6 -1.36,1.28 -2.32,1.62c-0.38,0.13 -0.58,0.55 -0.44,0.93c0.13,0.38 0.55,0.58 0.93,0.44c1.3,-0.46 2.28,-1.31 2.94,-2.04c0.29,-0.32 0.52,-0.62 0.69,-0.86c1.21,0.7 2.7,1.16 4.41,1.16c0.4,0 0.73,-0.33 0.73,-0.73c0,-0.4 -0.33,-0.73 -0.73,-0.73z" fill="#BCCBE1" id="svg_8"/>
 </g>
</svg>