<?xml version="1.0"?>
<svg width="127" height="126" xmlns="http://www.w3.org/2000/svg" xmlns:svg="http://www.w3.org/2000/svg">
 <defs>
  <linearGradient id="paint0_linear_4741_2342" x1="0.5" x2="0.5" y1="0" y2="1">
   <stop stop-color="#AFC1DC"/>
   <stop offset="1" stop-color="#E2E5ED"/>
  </linearGradient>
 </defs>
 <g class="layer">
  <title>Layer 1</title>
  <rect fill="url(#paint0_linear_4741_2342)" height="115" id="svg_10" rx="15" ry="15" width="115" x="5.2" y="4.2"/>
  <path d="m91.65,69.91l-55.11,0c-5.94,0 -10.81,4.68 -10.81,10.4c0,5.72 4.87,10.41 10.81,10.41l55.11,0c5.93,0 10.8,-4.68 10.8,-10.41c0,-5.72 -4.86,-10.4 -10.8,-10.4z" fill="#EDC391" id="svg_2"/>
  <path d="m93.43,43.46c-7.09,-10.78 -16.24,-14.47 -29.52,-14.47c-13.27,0 -22.42,3.68 -29.51,14.47c-5.19,7.91 -6.44,20.34 -4.84,33.15c1.54,12.31 2.82,19.07 10.46,25.97c6.64,5.99 15.65,7.28 23.39,7.28l1.01,0c7.74,0 16.76,-1.29 23.39,-7.28c7.64,-6.9 8.92,-13.66 10.46,-25.97c1.6,-12.81 0.35,-25.25 -4.84,-33.15z" fill="#F7DECE" id="svg_3"/>
  <path d="m74.9,44.64c0.11,-0.11 0.21,-0.21 0.31,-0.32c0.08,-0.08 0.15,-0.17 0.23,-0.25c0.17,-0.2 0.33,-0.4 0.48,-0.61l0.07,-0.09c0.15,-0.2 0.28,-0.4 0.41,-0.62c0.04,-0.06 0.08,-0.12 0.11,-0.18c0.13,-0.22 0.25,-0.43 0.37,-0.66c0.02,-0.03 0.04,-0.06 0.05,-0.1c0.28,-0.55 0.53,-1.15 0.73,-1.78l0.02,-0.07c0.4,-1.3 0.64,-2.76 0.64,-4.39c0,-3.28 -1.18,-5.87 -2.98,-7.82c-0.02,-0.03 -0.04,-0.04 -0.05,-0.06c-0.14,-0.15 -0.29,-0.3 -0.44,-0.44l-0.09,-0.09c-0.17,-0.17 -0.34,-0.32 -0.53,-0.48c-0.14,-0.12 -0.29,-0.24 -0.44,-0.36c-0.04,-0.03 -0.07,-0.05 -0.1,-0.08l-0.49,-0.35c-0.03,-0.02 -0.05,-0.04 -0.08,-0.05c-0.59,-0.4 -1.2,-0.76 -1.84,-1.06c-0.02,-0.01 -0.05,-0.02 -0.07,-0.04c-0.19,-0.08 -0.37,-0.17 -0.55,-0.25l-0.17,-0.07c-0.17,-0.07 -0.33,-0.13 -0.49,-0.19c-0.06,-0.02 -0.13,-0.05 -0.19,-0.07c-0.15,-0.06 -0.31,-0.11 -0.45,-0.16l-0.2,-0.07c-0.16,-0.05 -0.3,-0.09 -0.46,-0.14c-0.07,-0.02 -0.13,-0.03 -0.21,-0.06c-0.15,-0.04 -0.31,-0.08 -0.46,-0.11l-0.19,-0.05c-0.17,-0.04 -0.34,-0.07 -0.5,-0.11c-0.06,-0.01 -0.11,-0.02 -0.16,-0.03c-0.43,-0.09 -0.87,-0.16 -1.31,-0.21c-0.05,-0.01 -0.11,-0.01 -0.17,-0.02c-0.16,-0.01 -0.3,-0.03 -0.46,-0.03c-0.09,-0.01 -0.17,-0.01 -0.26,-0.02c-0.12,-0.01 -0.24,-0.01 -0.36,-0.01c-0.1,0 -0.19,-0.01 -0.29,-0.01c-0.07,0 -0.14,-0.01 -0.2,-0.01l-0.07,0c-0.32,0 -0.63,0.02 -0.94,0.04c-0.06,0.01 -0.12,0.01 -0.18,0.01c-0.32,0.03 -0.63,0.06 -0.92,0.11c-3.63,0.59 -6.56,2.5 -8.38,4.36c-1.1,1.11 -1.8,2.21 -2.02,3l0.01,0c2.34,-0.6 5.38,-1.12 8.76,-1.3c4.57,-0.32 8.39,2.29 8.21,6.29c-0.03,0.48 -0.08,0.93 -0.17,1.35l-0.02,0.12c-0.03,0.16 -0.08,0.33 -0.12,0.48c-0.02,0.08 -0.05,0.15 -0.06,0.22c-0.05,0.13 -0.09,0.26 -0.14,0.39c-0.03,0.08 -0.07,0.17 -0.11,0.25c-0.05,0.11 -0.1,0.23 -0.15,0.33c-0.04,0.09 -0.09,0.17 -0.14,0.25c-0.05,0.1 -0.11,0.19 -0.17,0.28c-0.06,0.09 -0.13,0.18 -0.18,0.27c-0.06,0.07 -0.11,0.14 -0.17,0.22c-0.09,0.12 -0.2,0.23 -0.3,0.33c-0.03,0.03 -0.06,0.07 -0.09,0.1c-0.14,0.14 -0.29,0.26 -0.44,0.39c-0.03,0.02 -0.07,0.04 -0.1,0.06c-0.12,0.1 -0.25,0.19 -0.39,0.28c-0.04,0.02 -0.08,0.05 -0.12,0.07c-0.14,0.08 -0.27,0.15 -0.4,0.22c-0.05,0.02 -0.08,0.04 -0.13,0.06c-0.14,0.07 -0.28,0.13 -0.44,0.19c-0.03,0.02 -0.07,0.03 -0.1,0.04c-0.17,0.06 -0.34,0.12 -0.52,0.18c-0.01,0 -0.03,0 -0.04,0.01c-0.8,0.24 -1.66,0.34 -2.53,0.34c-2.62,0 -5.35,-0.97 -6.91,-2.37c-0.13,-0.12 -0.3,-0.18 -0.47,-0.18c-0.04,0 -0.08,0.01 -0.1,0.02c-0.03,0.01 -0.07,0.01 -0.1,0.02c-0.04,0.02 -0.09,0.03 -0.13,0.05c-0.08,0.04 -0.14,0.08 -0.2,0.14c-0.01,0.01 -0.02,0.03 -0.03,0.04c-0.05,0.06 -0.1,0.13 -0.14,0.21c0,0.01 0,0.02 -0.01,0.03c-0.04,0.1 -0.06,0.21 -0.04,0.33c0.22,2.23 1.62,5.01 4.95,7.11c3.18,2 9.85,2.02 14.6,-1.23l0.14,-0.09c0.14,-0.1 0.28,-0.21 0.42,-0.31c0.06,-0.04 0.13,-0.1 0.19,-0.15c0.21,-0.16 0.4,-0.33 0.6,-0.51l0.28,-0.26c0.11,-0.08 0.2,-0.18 0.28,-0.27z" fill="#312D2D" id="svg_4"/>
  <path d="m74.9,44.64c0.11,-0.11 0.21,-0.21 0.31,-0.32c0.08,-0.08 0.15,-0.17 0.23,-0.25c0.17,-0.2 0.33,-0.4 0.48,-0.61l0.07,-0.09c0.15,-0.2 0.28,-0.4 0.41,-0.62c0.04,-0.06 0.08,-0.12 0.11,-0.18c0.13,-0.22 0.25,-0.43 0.37,-0.66c0.02,-0.03 0.04,-0.06 0.05,-0.1c0.28,-0.55 0.53,-1.15 0.73,-1.78l0.02,-0.07c0.4,-1.3 0.64,-2.76 0.64,-4.39c0,-3.28 -1.18,-5.87 -2.98,-7.82c-0.02,-0.03 -0.04,-0.04 -0.05,-0.06c-0.14,-0.15 -0.29,-0.3 -0.44,-0.44l-0.09,-0.09c-0.17,-0.17 -0.34,-0.32 -0.53,-0.48c-0.14,-0.12 -0.29,-0.24 -0.44,-0.36c-0.04,-0.03 -0.07,-0.05 -0.1,-0.08l-0.49,-0.35c-0.03,-0.02 -0.05,-0.04 -0.08,-0.05c-0.59,-0.4 -1.2,-0.76 -1.84,-1.06c-0.02,-0.01 -0.05,-0.02 -0.07,-0.04c-0.19,-0.08 -0.37,-0.17 -0.55,-0.25l-0.17,-0.07c-0.17,-0.07 -0.33,-0.13 -0.49,-0.19c-0.06,-0.02 -0.13,-0.05 -0.19,-0.07c-0.15,-0.06 -0.31,-0.11 -0.45,-0.16l-0.2,-0.07c-0.16,-0.05 -0.3,-0.09 -0.46,-0.14c-0.07,-0.02 -0.13,-0.03 -0.21,-0.06c-0.15,-0.04 -0.31,-0.08 -0.46,-0.11l-0.19,-0.05c-0.17,-0.04 -0.34,-0.07 -0.5,-0.11c-0.06,-0.01 -0.11,-0.02 -0.16,-0.03c-0.43,-0.09 -0.87,-0.16 -1.31,-0.21c-0.05,-0.01 -0.11,-0.01 -0.17,-0.02c-0.16,-0.01 -0.3,-0.03 -0.46,-0.03c-0.09,-0.01 -0.17,-0.01 -0.26,-0.02c-0.12,-0.01 -0.24,-0.01 -0.36,-0.01c-0.1,0 -0.19,-0.01 -0.29,-0.01c-0.07,0 -0.14,-0.01 -0.2,-0.01l-0.07,0c-0.32,0 -0.63,0.02 -0.94,0.04c-0.06,0.01 -0.12,0.01 -0.18,0.01c-0.32,0.03 -0.63,0.06 -0.92,0.11c-3.63,0.59 -6.56,2.5 -8.38,4.36c-1.1,1.11 -1.8,2.21 -2.02,3l0.01,0c2.34,-0.6 5.38,-1.12 8.76,-1.3c4.57,-0.32 8.39,2.29 8.21,6.29c-0.03,0.48 -0.08,0.93 -0.17,1.35l-0.02,0.12c-0.03,0.16 -0.08,0.33 -0.12,0.48c-0.02,0.08 -0.05,0.15 -0.06,0.22c-0.05,0.13 -0.09,0.26 -0.14,0.39c-0.03,0.08 -0.07,0.17 -0.11,0.25c-0.05,0.11 -0.1,0.23 -0.15,0.33c-0.04,0.09 -0.09,0.17 -0.14,0.25c-0.05,0.1 -0.11,0.19 -0.17,0.28c-0.06,0.09 -0.13,0.18 -0.18,0.27c-0.06,0.07 -0.11,0.14 -0.17,0.22c-0.09,0.12 -0.2,0.23 -0.3,0.33c-0.03,0.03 -0.06,0.07 -0.09,0.1c-0.14,0.14 -0.29,0.26 -0.44,0.39c-0.03,0.02 -0.07,0.04 -0.1,0.06c-0.12,0.1 -0.25,0.19 -0.39,0.28c-0.04,0.02 -0.08,0.05 -0.12,0.07c-0.14,0.08 -0.27,0.15 -0.4,0.22c-0.05,0.02 -0.08,0.04 -0.13,0.06c-0.14,0.07 -0.28,0.13 -0.44,0.19c-0.03,0.02 -0.07,0.03 -0.1,0.04c-0.17,0.06 -0.34,0.12 -0.52,0.18c-0.01,0 -0.03,0 -0.04,0.01c-0.8,0.24 -1.66,0.34 -2.53,0.34c-2.62,0 -5.35,-0.97 -6.91,-2.37c-0.13,-0.12 -0.3,-0.18 -0.47,-0.18c-0.04,0 -0.08,0.01 -0.1,0.02c-0.03,0.01 -0.07,0.01 -0.1,0.02c-0.04,0.02 -0.09,0.03 -0.13,0.05c-0.08,0.04 -0.14,0.08 -0.2,0.14c-0.01,0.01 -0.02,0.03 -0.03,0.04c-0.05,0.06 -0.1,0.13 -0.14,0.21c0,0.01 0,0.02 -0.01,0.03c-0.04,0.1 -0.06,0.21 -0.04,0.33c0.22,2.23 1.62,5.01 4.95,7.11c3.18,2 9.85,2.02 14.6,-1.23l0.14,-0.09c0.14,-0.1 0.28,-0.21 0.42,-0.31c0.06,-0.04 0.13,-0.1 0.19,-0.15c0.21,-0.16 0.4,-0.33 0.6,-0.51l0.28,-0.26c0.11,-0.08 0.2,-0.18 0.28,-0.27z" fill="#126a9c" id="svg_5"/>
  <path d="m67.94,80.29c-0.1,-0.04 -0.21,-0.06 -0.31,-0.08l-6.86,0c-0.11,0.02 -0.21,0.04 -0.31,0.08c-0.62,0.25 -0.97,0.9 -0.68,1.58c0.3,0.69 1.66,2.61 4.42,2.61c2.75,0 4.11,-1.92 4.41,-2.61c0.29,-0.68 -0.05,-1.33 -0.67,-1.58z" fill="#DBA689" id="svg_6"/>
  <path d="m48.05,80.97c2.64,0 4.78,-2.21 4.78,-4.95c0,-2.73 -2.14,-4.95 -4.78,-4.95c-2.64,0 -4.78,2.22 -4.78,4.95c0,2.74 2.14,4.95 4.78,4.95z" fill="#312D2D" id="svg_7"/>
  <path d="m80.31,80.97c2.64,0 4.78,-2.21 4.78,-4.95c0,-2.73 -2.14,-4.95 -4.78,-4.95c-2.64,0 -4.78,2.22 -4.78,4.95c0,2.74 2.14,4.95 4.78,4.95z" fill="#312D2D" id="svg_8"/>
  <path d="m71.07,90.58c-2.66,1.57 -11.36,1.57 -14.01,0c-1.53,-0.91 -3.09,0.47 -2.45,1.86c0.62,1.37 5.37,4.52 9.48,4.52c4.1,0 8.79,-3.15 9.41,-4.52c0.63,-1.39 -0.91,-2.77 -2.43,-1.86z" fill="#444444" id="svg_9"/>
 </g>
</svg>