<?xml version="1.0"?>
<svg width="25" height="25" xmlns="http://www.w3.org/2000/svg" xmlns:svg="http://www.w3.org/2000/svg">
 <g class="layer">
  <title>Layer 1</title>
  <path clip-rule="evenodd" d="m9.49,1.5c-0.3,0.26 -0.46,0.39 -0.62,0.5c-0.37,0.25 -0.79,0.42 -1.23,0.51c-0.19,0.04 -0.39,0.05 -0.79,0.08c-1,0.08 -1.5,0.12 -1.92,0.27c-0.97,0.34 -1.73,1.1 -2.07,2.07c-0.15,0.42 -0.19,0.92 -0.27,1.92c-0.03,0.4 -0.04,0.6 -0.08,0.79c-0.09,0.44 -0.26,0.86 -0.51,1.23c-0.11,0.16 -0.24,0.32 -0.5,0.62c-0.65,0.77 -0.98,1.15 -1.17,1.55c-0.44,0.92 -0.44,2 0,2.92c0.19,0.4 0.52,0.78 1.17,1.55c0.26,0.3 0.39,0.46 0.5,0.62c0.25,0.37 0.42,0.79 0.51,1.23c0.04,0.19 0.05,0.39 0.08,0.79c0.08,1 0.12,1.5 0.27,1.92c0.34,0.97 1.1,1.73 2.07,2.07c0.42,0.15 0.92,0.19 1.92,0.27c0.4,0.03 0.6,0.04 0.79,0.08c0.44,0.09 0.86,0.26 1.23,0.51c0.16,0.11 0.32,0.24 0.62,0.5c0.77,0.65 1.15,0.98 1.55,1.17c0.92,0.44 2,0.44 2.92,0c0.4,-0.19 0.78,-0.52 1.55,-1.17c0.3,-0.26 0.46,-0.39 0.62,-0.5c0.37,-0.25 0.79,-0.42 1.23,-0.51c0.19,-0.04 0.39,-0.05 0.79,-0.08c1,-0.08 1.5,-0.12 1.92,-0.27c0.97,-0.34 1.73,-1.1 2.07,-2.07c0.15,-0.42 0.19,-0.92 0.27,-1.92c0.03,-0.4 0.04,-0.6 0.08,-0.79c0.09,-0.44 0.26,-0.86 0.51,-1.23c0.11,-0.16 0.24,-0.32 0.5,-0.62c0.65,-0.77 0.98,-1.15 1.17,-1.55c0.44,-0.92 0.44,-2 0,-2.92c-0.19,-0.4 -0.52,-0.78 -1.17,-1.55c-0.26,-0.3 -0.39,-0.46 -0.5,-0.62c-0.25,-0.37 -0.42,-0.79 -0.51,-1.23c-0.04,-0.19 -0.05,-0.39 -0.08,-0.79c-0.08,-1 -0.12,-1.5 -0.27,-1.92c-0.34,-0.97 -1.1,-1.73 -2.07,-2.07c-0.42,-0.15 -0.92,-0.19 -1.92,-0.27c-0.4,-0.03 -0.6,-0.04 -0.79,-0.08c-0.44,-0.09 -0.86,-0.26 -1.23,-0.51c-0.16,-0.11 -0.32,-0.24 -0.62,-0.5c-0.77,-0.65 -1.15,-0.98 -1.55,-1.17c-0.92,-0.44 -2,-0.44 -2.92,0c-0.4,0.19 -0.78,0.52 -1.55,1.17zm8.48,8.33c0.39,-0.4 0.39,-1.04 0,-1.44c-0.4,-0.4 -1.04,-0.4 -1.44,0l-6.06,6.06l-2,-1.99c-0.4,-0.4 -1.04,-0.4 -1.44,0c-0.39,0.4 -0.39,1.04 0,1.44l2.72,2.71c0.39,0.4 1.04,0.4 1.43,0l6.79,-6.78z" fill="#126a9c" fill-rule="evenodd" id="svg_1"/>
 </g>
</svg>